<svg version="1.1" id="Слой_1" xmlns="http://www.w3.org/2000/svg" x="0" y="0" viewBox="0 0 3006 1670" xml:space="preserve"><style>.st2{fill:#eeae69}.st3{fill:#e88653}.st4{fill:#ea8786}.st5{fill:#c84b4e}.st6{fill:#3c1928}.st8{fill:#ce465f}.st9{fill:#5e3347}.st10{fill:#77485d}.st11{fill:#e36460}.st12{fill:#bb6d47}.st20{fill:#1e1e1c}.st21{fill:#fff}</style><switch><g><path d="M2275.27 280.57c-195.75-232.52-444.73-95.15-640.95-125.67-196.21-30.52-266.85-205.52-812.34 60.23-509.18 248.05-355.3 1086.9 31.88 1389.93h1485.29c398.65-362.99 123.75-1101.63-63.88-1324.49z" fill="#f3dcc9"/><path d="M2275.27 280.57c-195.75-232.52-444.73-95.15-640.95-125.67-196.21-30.52-266.85-205.52-812.34 60.23-107.3 52.27-185.04 130.84-237.48 225.04 142.7-67.72 267.32-171.09 422.78-209.65 48.3-11.98 99.98-17.31 150.12-5.42 134.29 31.86 157.69 162.1 157.59 274.18-.1 124.62-21.25 250.77 36.37 371.78 48.83 102.56 149.56 177.62 263.83 183.5 142.12 7.3 263.05-91.44 392.12-128.15 169.12-48.1 383.26 12.48 416.22 212.47 10.98 66.64-5.5 249.36-26.42 405.05 311.54-379.14 55.79-1052.37-121.84-1263.36z" fill="#948692"/><path class="st2" d="M2489.98 1134.43c6.05-4.81 12.29-10.06 16.73-18.23 2.62-4.82 4.46-10.39 6.25-15.9 3.49-10.77 6.96-22.04 7.24-33.25.22-8.49-1.41-16.68.09-25.23 1.26-7.17 4.56-13.54 7.33-20.02 3.85-9.01 6.89-19.12 7.06-29 .12-6.95-1.17-13.36-2.23-19.79-2.73-16.63-3.96-34.21-3.64-52.15.13-7.31.47-15.02-1.53-21.09a85.737 85.737 0 01-4.02 18.2c-3.39 9.96-8.47 18.64-13.71 26.8-10.24 15.96-21.37 30.62-31 47.44-9.62 16.82-17.84 36.43-20.33 57.05-1.15 9.56-1.07 19.2-3.25 28.61-5.77 24.92-25.71 41.76-29.32 67.06-.75 5.25-.7 10.47-.65 15.63.06 6.29-1.93 30.2 3.07 28.39 2.65-.96 7.44-8.4 9.93-10.95 3.27-3.36 6.61-6.54 9.98-9.6 6.9-6.28 13.96-12.02 21.05-17.6 6.29-4.97 15.4-9.38 20.95-16.37z"/><path class="st3" d="M2450.32 1142.83c11.39-13.41 20.31-30.88 26.66-49.63 3.14-9.41 5.83-19.1 7.93-28.92 2.12-9.77 3.66-19.84 5.45-30 .93-5.08 1.94-10.19 3.12-15.3 1.19-5.11 2.68-10.23 4.29-15.14 3.35-9.77 7.14-19.06 10.94-28.23 3.75-9.2 7.55-18.32 10.6-27.84 3.15-9.47 5.44-19.44 6.21-29.59.23 9.97-1.7 20.48-4.28 30.48-2.68 10.02-6.17 19.61-9.68 29.03-3.48 9.45-7.16 18.69-10.15 28.15-1.46 4.75-2.83 9.42-3.92 14.29-1.1 4.87-2.03 9.83-2.92 14.82-1.85 9.98-3.41 20.17-5.77 30.39-2.41 10.13-5.28 20.15-8.9 29.72-3.6 9.57-7.88 18.71-12.87 26.86-4.98 8.11-10.64 15.26-16.71 20.91z"/><path class="st2" d="M2534.34 1046.45c-7.1 1.88-14.31 4.04-20.22 8.39-16.32 12.02-17.6 36.03-29.64 52.34-9 12.18-23.56 19.39-32.39 31.7-4.77 6.66-7.62 14.47-10.41 22.17-2.93 8.1-5.86 16.2-8.8 24.3a513.551 513.551 0 00101.56-37.76c5.78-2.88 11.62-5.94 16.15-10.54 8.93-9.04 11.48-22.6 11.63-35.3.13-10.77-1.11-21.87 2.37-32.06 5.81-17.05 21.08-22.85 33.18-34.03-18.12-3.53-45.67 6.09-63.43 10.79z"/><path class="st3" d="M2574.41 1043.82c-5.98 3.3-12.06 6.41-17.76 10.07-5.73 3.58-11.18 7.59-15.82 12.32-4.61 4.76-8.33 10.2-10.78 16.34-2.55 6.1-4.29 12.64-6.32 19.22-1.05 3.28-2.19 6.57-3.58 9.8-1.39 3.23-3.06 6.35-4.91 9.34-3.79 5.92-8.38 11.24-13.46 15.96-10.11 9.54-21.87 16.73-33.65 23.6 5.39-4.2 10.92-8.2 16.15-12.54 5.3-4.25 10.4-8.7 15.07-13.53 4.62-4.86 8.93-9.99 12.31-15.7 1.66-2.86 3.22-5.77 4.49-8.82 1.28-3.05 2.34-6.22 3.34-9.44 2.08-6.42 3.85-13.11 6.7-19.54 2.82-6.45 7.04-12.44 12.22-17.16 10.4-9.63 23.35-15 36-19.92z"/><path class="st4" d="M2405.52 1070.05c-8.79-14.9-21.39-28.09-37.39-34.67-22.25-9.15-49.36-5.07-69.15-18.76-4.02-2.78-7.58-6.22-11.78-8.72-9.4-5.6-20.9-5.95-31.84-6.15-1.55-.03-3.22-.02-4.47.9-.91.68-1.44 1.75-1.8 2.82-2.2 6.63 1.28 13.94 6.15 18.95s11.07 8.54 16.19 13.29c8.7 8.07 13.88 19.32 16.78 30.83 2.9 11.51 3.7 23.41 4.93 35.21.49 4.69 1.07 9.46 3.07 13.73 3.15 6.74 9.44 11.44 15.75 15.38a159.065 159.065 0 0033.04 15.7c24.65 8.39 52.58 11.37 71.75 29 2.03 1.87 3.94 3.89 6.16 5.52 4.23 3.12 9.64 4.75 14.85 4.02 2-6.64-.96-13.62-3.43-20.09-6.39-16.71-7.74-33.45-10.87-50.82-2.87-15.84-9.78-32.32-17.94-46.14z"/><path class="st4" d="M2413.95 938.85c14.07 18.79 21.46 42.49 20.55 65.95-.82 21.3-8.16 43.04-2.1 63.48 2.95 9.97 8.99 19.03 10.41 29.33 3.38 24.5-19.82 45.49-20.99 70.2-4.72-.83-6.99-6.04-9.42-10.17-6.79-11.56-19.47-18.06-29.85-26.56-18.06-14.8-29.77-37.1-31.7-60.37-2.31-27.93 8.82-55.79 5.72-83.65-1.07-9.59-3.81-18.9-5.42-28.42-2.23-13.16-2.23-26.69-.11-39.86 1.72-10.68 4.89-30.05 13.26-37.24 14.98 20.58 34.43 36.99 49.65 57.31z"/><path class="st4" d="M2454.56 992.21c-4.3 4.97-9.47 9.26-12.89 14.87-3 4.93-4.5 10.62-5.44 16.32a95.202 95.202 0 00-.3 28.99c.7 4.83 1.77 9.66 1.42 14.52-1.32 18.72-21.88 30.21-21.72 48.93.05 6.32 1.85 12.48 3.71 18.52a744.97 744.97 0 0018.05 51.74c1.75-7.47 3.52-15.01 6.81-21.94 2.03-4.28 4.63-8.29 6.49-12.65 5.45-12.74 4.21-27.41.52-40.76-1.13-4.08-2.49-8.3-1.73-12.47.53-2.91 2.07-5.54 3.75-7.97 5.61-8.14 13.5-13.59 20.23-20.62 6.55-6.83 9.37-16.32 11.97-25.42 2.19-7.67 4.4-15.47 4.35-23.45-.05-7.44-2.08-14.71-4.08-21.88-4.96-17.69-8.31-37.45-15.52-54.27-2.85 6.05-1.16 14.93-2.69 21.73-2.13 9.48-6.56 18.46-12.93 25.81z"/><path class="st5" d="M2367.38 917.48c5.41 19.92 12.47 39.33 16.51 59.81 2.18 10.16 2.99 20.79 3.24 31.15.19 10.38.15 20.7.22 30.93.08 5.11.21 10.21.59 15.27.32 5.06.78 10.1 1.58 15.07.71 4.99 1.87 9.88 3.14 14.73 1.31 4.79 3.02 9.7 4.71 14.5 6.71 19.34 15.1 38.1 24.17 56.7-11.87-16.96-21.64-35.42-29.47-54.7-1.9-4.87-3.77-9.64-5.37-14.75-1.58-5.06-2.78-10.24-3.6-15.45-1.82-10.42-2.2-20.94-2.21-31.33-.05-10.4.55-20.71.73-30.97.44-10.27-.32-20.3-1.82-30.44-3.04-20.22-8.9-40.16-12.42-60.52zm-90.65 107.42c16.41 6.53 32.21 15.33 45.64 27.38 6.76 5.87 12.82 13 17.57 20.68 4.84 7.66 8.65 15.72 12.72 23.47 3.95 7.81 8.1 15.39 13.3 22.1 5.05 6.79 11.57 12.36 18.48 17.67 6.92 5.28 14.28 10.27 21.14 16 3.42 2.86 6.67 5.98 9.66 9.3 2.98 3.34 5.51 7.05 7.69 10.89-2.77-3.46-5.74-6.69-9.01-9.58-3.3-2.86-6.7-5.58-10.34-8-7.16-4.99-14.81-9.33-22.19-14.38-1.86-1.22-3.68-2.57-5.51-3.87-1.77-1.41-3.58-2.75-5.28-4.29-3.48-2.93-6.69-6.28-9.6-9.82-5.78-7.15-10.17-15.1-14.28-22.97-4.01-7.92-7.74-15.85-12.16-23.23-4.25-7.52-9.62-14.04-15.76-20.2-12.23-12.27-26.87-22.14-42.07-31.15zm192.73-31.96c-.22 14.57-2.99 29.09-7.02 43.11-3.96 14.06-9.04 27.71-13.5 41.45a434.035 434.035 0 00-11.53 41.74c-3.07 14.11-5.45 28.4-6.84 42.88-.33-14.55.9-29.17 3.44-43.55 2.47-14.4 6.2-28.57 10.71-42.46 4.6-13.85 9.83-27.38 14.42-41.08 4.53-13.7 8.38-27.65 10.32-42.09z"/><path class="st6" d="M2490.59 1347.51h-106.37c-6.85 0-12.41-5.56-12.41-12.41l-20.84-148.04c0-6.85 5.56-12.41 12.41-12.41h148.04c6.85 0 12.41 5.56 12.41 12.41L2503 1335.1c0 6.86-5.56 12.41-12.41 12.41z"/><path d="M641.4 1347.51c57.31 103.04 129.51 192.61 212.47 257.54h1485.29c80.23-73.05 133.13-161.33 165-257.54H641.4z" fill="#894b32"/><path class="st5" d="M1151.32 699.01c-13.42-5.95-24.12-18.72-25-19.84-15.18-19.41-27.4-41.13-37.21-63.7a401.745 401.745 0 01-19.89-57.15c-4.52-17.04-22.73-73.41 12.63-68.03 8.81 1.34 15.79 7.94 20.74 14.96 22.27 31.59 66.75 155.23 66.75 155.23l-18.02 38.53z"/><path class="st2" d="M1052.35 1404.48c.67-4.77 2.81-9.52 4.57-14.13.5-1.31 4.5-14.13 4.58-15.58 1.07-21.11-1.98-79.46-1.98-79.46l58.33-.07s-8.93 50.4-1.08 80.18h-.07c25.62 14.62 71.41 34.3 71.41 34.3s51.94 9.09 54.65 10.31c2.72 1.22 9.47 3.15 17.11 10.37 0 0 5.92 13.52-59.22 22.99 0 0-28.18 5.88-73.17-1.73-9.75-.97-19.5-1.93-29.25-2.9-10.01-.99-40.1-2.31-44-5.26-1.5-1.14-2.52-2.3-3.19-3.5-5.17-9.24-.08-25.6 1.31-35.52z"/><path class="st8" d="M1056.91 1390.35c.29-.76 1.75-5.37 2.95-9.4 2.21 1.24 4.41 2.41 6.54 3.51 24.71 12.77 51.62 11.81 78.25 6.48.5-.1.97-.23 1.44-.36 21.34 10.27 42.02 19.16 42.02 19.16s51.94 9.09 54.65 10.31c2.72 1.22 9.47 3.15 17.11 10.37 0 0 5.92 13.52-59.22 22.99 0 0-28.18 5.88-73.17-1.73-9.75-.97-19.5-1.93-29.25-2.9-10.01-.99-40.1-2.31-44-5.26-1.5-1.14-2.52-2.3-3.19-3.5-5.17-9.24-.07-25.6 1.32-35.53.66-4.79 2.8-9.53 4.55-14.14z"/><path class="st9" d="M1120.44 980.38s13.7-.62 12.79 35.8c-.91 36.42-1.04 329.48-1.04 329.48l-86.71 9s-29.94-216.49 10.27-342.45c0 .01 15.18-55.99 64.69-31.83z"/><path class="st9" d="M1016.89 740.14a52.93 52.93 0 0110.06-5.51c15.05-6.21 31.39-.25 47.63.94 43.46 3.18 54.78 98.86 55.95 151.34 1.25 56.26 11.67 101.7-9.11 153.99-6.14 15.44-16.58 31.65-32.98 34.31-12.64 2.05-25.4-4.98-33.53-14.87-8.13-9.89-12.48-22.28-16.43-34.46-16.75-51.68-29-104.69-41.8-157.49-5.9-24.32-11.96-49.23-9.18-74.1 2.34-21.02 12.38-42.3 29.39-54.15z"/><path class="st2" d="M922.93 1414.58c1.17-4.67 3.8-9.16 6.04-13.57.63-1.25 5.98-13.57 6.2-15.01 3.3-20.88 6.45-79.22 6.45-79.22l58.01 6.1s-14.22 49.17-9.56 79.62H990c23.92 17.25 67.38 41.67 67.38 41.67s50.68 14.54 53.26 16.04c2.57 1.5 9.08 4.13 15.92 12.12 0 0 4.45 14.07-61.32 16.59 0 0-28.65 2.86-72.57-9.47-9.59-1.99-19.19-3.99-28.78-5.98-9.85-2.05-39.63-6.55-43.19-9.89-1.38-1.29-2.26-2.55-2.8-3.82-4.19-9.72 2.6-25.45 5.03-35.18z"/><path class="st8" d="M928.97 1401.02c.37-.72 2.31-5.15 3.93-9.04 2.07 1.46 4.13 2.86 6.13 4.18 23.22 15.31 50.08 17.21 77.12 14.73.51-.05.99-.13 1.47-.21 20.13 12.47 39.75 23.5 39.75 23.5s50.68 14.54 53.26 16.04c2.57 1.5 9.08 4.13 15.92 12.12 0 0 4.45 14.07-61.32 16.59 0 0-28.65 2.86-72.57-9.47-9.59-1.99-19.19-3.99-28.78-5.98-9.85-2.05-39.63-6.55-43.19-9.89-1.37-1.29-2.26-2.55-2.8-3.82-4.16-9.74 2.64-25.47 5.07-35.19 1.14-4.67 3.78-9.16 6.01-13.56z"/><path class="st10" d="M1035.56 1000.09s13.68.84 8.92 36.95c-4.76 36.12-40.23 330.58-40.23 330.58l-77.05-3.27s-12.65-218.46 40.66-339.45c0 0 21.02-54.08 67.7-24.81z"/><path class="st10" d="M958.39 752.63c20.15-12.15 44.2-9.59 63.57 2.91 25.91 16.72 41.4 45.63 44.32 76.15 3.93 41.09.97 86.46-4.3 127.31-2.83 21.95-7.76 45.08-14.37 66.8-5.58 18.35-8.71 42.81-25.84 55.08-12.54 8.97-34.5 9.74-46.84-.47-12.84-10.63-16.78-29.13-19.62-44.67-3.25-17.74-7.11-35.43-10.38-53.21-5.6-30.38-9.95-61-15.75-91.34-5.59-29.21-9.69-60.72-3.61-90.19 4.37-21.15 16.69-38.64 32.82-48.37z"/><path class="st11" d="M910.87 805.59c3.95-33.42 11.38-64.36 7.14-98.36-4.28-34.32-8.29-68.68-13.2-102.9-2.09-14.53-5.9-29.45-7.29-44-1.86-19.53 3.88-35.7 15.76-49.58 10.33-12.07 50.43-41.82 55.65-44.37 21.9-10.7 50.97-8.53 72.81 2.98 13.96 7.36 27.92 14.71 41.88 22.07 14.84 7.82 24.66 24.84 25.21 43.7 1.2 40.97 2.17 81.95 2.47 122.92.16 21.43-2.28 42.22 1.17 63.55 4.49 27.8 25.79 75.06 25.3 115.49 0 0-4.88-1.4-15.89 1.76-28.44 8.16-77.96 9.22-107.03 14.37-28.36 5.03-70.59 15.34-98.49 7.14 0 0-7.76-35.57-5.49-54.77z"/><path class="st8" d="M1040.14 471.34c-2.9-1.53 4.5-.45 1.6-1.98-21.83-11.5-50.91-13.68-72.81-2.98-1.48.73-5.84 3.7-11.49 7.79 2.3 23.66 30.28 35.85 54.54 35.85 24.34 0 41.77-13.3 28.16-38.68zm40.43 170.14c13.48 9.03 21.71 14.64 30.69 13.54-.18-21.87-.55-43.75-1.04-65.62-2.08 3.8-4.99 7.41-10.09 9.64-18.76 8.19-37.73-18.37-54.12-8.66s-32.32 36.51-56.03 26.03c-28.9-12.78-38.78-4.88-65.57 21.27l-4.63 40.29c.46 1.97.91 3.93 1.37 5.9 14.26-.95 81.84-5.64 99.49-10.1 19.75-5.01 32.52-50.66 59.93-32.29z"/><path class="st3" d="M967.58 423.66l1.39 44s10.96 49.26 61.78 25.56c3.23-1.51 5.27-4.84 5.07-8.4l-3.58-62.97-64.66 1.81z"/><path class="st2" d="M970.53 352.54l3.61 78.71-.56 10.82c26.61 40.2 67.25 42.43 79.61 27.88s20.48-120.18 20.48-120.18l-103.14 2.77z"/><path class="st3" d="M1054.44 407.7l-5.97 33.34 19.04 3.4z"/><path class="st9" d="M972.82 312.32c10.92-21.51 85.18-13.41 106.39 18.53 16.58 24.97 4.21 48.29-14.16 54.85-25.99 9.28-57.09-14.85-57.09-14.85s1.49-2.2-9.54 15.14c-6.07 9.54-8.58 23.86-9.61 34.81-.45 4.82-11.71 8.07-14.34 4.01l-5.62-16.47-.47 50.34c-10.66-23.13-20.6-47.69-26.99-72.7l-.05.02c-25.65-80.65 31.48-73.68 31.48-73.68z"/><path class="st2" d="M959.12 392.65c-7.95 8.69-4.3 29.69 15.02 38.6l1.84-35.68c-1.76-5.18-11.63-8.64-16.86-2.92zm772.05 1011.83c-.67-4.77-2.81-9.52-4.57-14.13-.5-1.31-4.5-14.13-4.58-15.58-1.07-21.11 1.98-79.46 1.98-79.46l-58.33-.07s8.93 50.4 1.08 80.18h.07c-25.62 14.62-71.41 34.3-71.41 34.3s-51.94 9.09-54.65 10.31c-2.72 1.22-9.47 3.15-17.11 10.37 0 0-5.92 13.52 59.22 22.99 0 0 28.18 5.88 73.17-1.73 9.75-.97 19.5-1.93 29.25-2.9 10.01-.99 40.1-2.31 44-5.26 1.5-1.14 2.52-2.3 3.19-3.5 5.17-9.24.08-25.6-1.31-35.52z"/><path class="st12" d="M1726.61 1390.35c-.29-.76-1.75-5.37-2.95-9.4-2.21 1.24-4.41 2.41-6.54 3.51-24.71 12.77-51.62 11.81-78.25 6.48-.5-.1-.97-.23-1.44-.36-21.34 10.27-42.02 19.16-42.02 19.16s-51.94 9.09-54.65 10.31c-2.72 1.22-9.47 3.15-17.11 10.37 0 0-5.92 13.52 59.22 22.99 0 0 28.18 5.88 73.17-1.73 9.75-.97 19.5-1.93 29.25-2.9 10.01-.99 40.1-2.31 44-5.26 1.5-1.14 2.52-2.3 3.19-3.5 5.17-9.24.07-25.6-1.32-35.53-.66-4.79-2.8-9.53-4.55-14.14z"/><path class="st6" d="M1663.08 980.38s-13.7-.62-12.79 35.8c.91 36.42 18.81 331.33 18.81 331.33l54.19 5.63s44.68-214.96 4.48-340.92c0 0-15.18-56-64.69-31.84z"/><path class="st6" d="M1766.63 740.14a52.93 52.93 0 00-10.06-5.51c-15.05-6.21-31.39-.25-47.63.94-43.46 3.18-54.78 98.86-55.95 151.34-1.25 56.26-11.67 101.7 9.11 153.99 6.14 15.44 16.58 31.65 32.98 34.31 12.64 2.05 25.4-4.98 33.53-14.87 8.13-9.89 12.48-22.28 16.43-34.46 16.75-51.68 29-104.69 41.8-157.49 5.9-24.32 11.96-49.23 9.18-74.1-2.34-21.02-12.38-42.3-29.39-54.15z"/><path class="st5" d="M1653.16 719.89c5.72 2 56.52-75.76 58.55-82.04 8.92-27.59 50.76-170.04-24.88-136.75-11.62 5.12-18.4 15.41-22.19 25.35-17.02 44.73-48.36 143.88-48.36 143.88s36.87 49.56 36.88 49.56z"/><path class="st2" d="M1656.26 685.52c-4.76-10.94-18.27-10.33-29.12-11.4-25.55-2.52-138.61 63.12-138.61 63.12l-22.39 1.12-22.42-3.95-14.29-2.52c-3.93-1.25-7.75-3-11.03-5.52-1.62-1.24-2.96-3.1-4.84-3.96-1.42-.65-3.3-.56-4.33.62-.75.86-.9 2.08-.86 3.21.15 4.37 2.75 8.58 6.6 10.67 1.46.79 3.06 1.29 4.61 1.89 1.55.6 3.09 1.34 4.26 2.51 1.18 1.17 1.95 2.86 1.67 4.5-.37 2.23-1.98 2.73-3.84 2.76-2.27.03-4.61.76-6.85 1.23l-4.17.87c-1.27.21-2.59.48-3.96.83-1.85.39-3.71.77-5.56 1.16-17.04 2.84-23.59-3.71-33.77 1.03-5.99 2.79 2.18 5.85-1.14 12.21-1.91 3.66 19.19 11.5 13.75 13.55-5.44 2.04 2.94 12.74 21.06 19.93 15.81 6.28 27.01 4.23 38.07 2.07.79-.02 1.57-.13 2.3-.45.1-.04 60.38-28.08 60.38-28.08 8.03-4.19 52.39-15.63 60.97-17.53 9.5-2.08 114.05-22.66 93.51-69.87z"/><path class="st5" d="M1505.01 773.95c17.76-5.56 47.12-13.07 54.2-14.64 10.38-2.3 124.73-24.8 102.26-76.44-5.21-11.96-19.98-11.3-31.85-12.47-22.41-2.21-106.36 43.52-138.72 61.71 5.53 13.68 10.43 27.54 14.11 41.84z"/><path class="st2" d="M1860.59 1414.58c-1.17-4.67-3.8-9.16-6.04-13.57-.63-1.25-5.98-13.57-6.2-15.01-3.3-20.88-6.45-79.22-6.45-79.22l-58.01 6.1s14.22 49.17 9.56 79.62h.07c-23.92 17.25-67.38 41.67-67.38 41.67s-50.68 14.54-53.26 16.04c-2.57 1.5-9.08 4.13-15.92 12.12 0 0-4.45 14.07 61.32 16.59 0 0 28.65 2.86 72.57-9.47 9.59-1.99 19.19-3.99 28.78-5.98 9.85-2.05 39.63-6.55 43.19-9.89 1.38-1.29 2.26-2.55 2.8-3.82 4.2-9.72-2.6-25.45-5.03-35.18z"/><path class="st12" d="M1854.55 1401.02c-.37-.72-2.31-5.15-3.93-9.04a240.68 240.68 0 01-6.13 4.18c-23.22 15.31-50.08 17.21-77.12 14.73-.51-.05-.99-.13-1.47-.21-20.13 12.47-39.75 23.5-39.75 23.5s-50.68 14.54-53.26 16.04c-2.57 1.5-9.08 4.13-15.92 12.12 0 0-4.45 14.07 61.32 16.59 0 0 28.65 2.86 72.57-9.47 9.59-1.99 19.19-3.99 28.78-5.98 9.85-2.05 39.63-6.55 43.19-9.89 1.37-1.29 2.26-2.55 2.8-3.82 4.16-9.74-2.64-25.47-5.07-35.19-1.14-4.67-3.78-9.16-6.01-13.56z"/><path class="st9" d="M1747.97 1000.09s-13.68.84-8.92 36.95c4.76 36.12 53.8 327.47 53.8 327.47l54.48-.14s21.66-218.48-31.65-339.47c-.01 0-21.04-54.08-67.71-24.81z"/><path class="st9" d="M1825.13 752.63c-20.15-12.15-44.2-9.59-63.57 2.91-25.91 16.72-41.4 45.63-44.32 76.15-3.93 41.09-.97 86.46 4.3 127.31 2.83 21.95 7.76 45.08 14.37 66.8 5.58 18.35 8.7 42.81 25.84 55.08 12.54 8.97 34.5 9.74 46.84-.47 12.84-10.63 16.78-29.13 19.62-44.67 3.25-17.74 7.11-35.43 10.38-53.21 5.6-30.38 9.95-61 15.75-91.34 5.59-29.21 9.69-60.72 3.61-90.19-4.37-21.15-16.68-38.64-32.82-48.37z"/><path class="st11" d="M1872.65 805.59c-3.95-33.42-11.38-64.36-7.14-98.36 4.28-34.32 8.29-68.68 13.2-102.9 2.09-14.53 5.9-29.45 7.29-44 1.86-19.53-7.19-35.72-19.07-49.6-10.33-12.07-23.41-25.97-35.71-35.23-.49-.37-.98-.74-1.47-1.1-4.74-3.56-8.75-2.68-13.96-5.23-21.9-10.7-52.17-11.31-74.01.19-13.96 7.36-27.92 14.71-41.88 22.07-14.84 7.82-24.66 24.84-25.21 43.7-1.2 40.97-2.17 81.95-2.47 122.92-.16 21.43 2.28 42.22-1.17 63.55-4.49 27.8-26.75 62.74-26.26 103.17.17 14.3 5.84 10.92 16.85 14.08 28.44 8.16 77.96 9.22 107.03 14.37 28.36 5.03 77.49 10.03 105.39 1.82 17.65-5.18.87-30.25-1.41-49.45z"/><linearGradient id="SVGID_1_" gradientUnits="userSpaceOnUse" x1="3471.911" y1="-182.209" x2="3471.911" y2="-141.319" gradientTransform="rotate(4.133 -6667.813 -23431.388)"><stop offset="0" stop-color="#f6f6f7"/><stop offset="1" stop-color="#f3c5ca"/></linearGradient><path fill="url(#SVGID_1_)" d="M1745.99 530.09l36.56-34.03-36.14-6.94z"/><path class="st3" d="M1815.94 423.66l-1.39 44s-11.72 52.7-67.17 22.86l3.9-68.66 64.66 1.8z"/><path class="st2" d="M1824.33 359.92l-15.64 77.23-1.11 10.78c-32.46 35.64-72.96 31.61-82.94 15.34-9.98-16.28-1.8-121.9-1.8-121.9l101.49 18.55z"/><path class="st3" d="M1731.55 392.42l.78 33.85-19.34.45z"/><path class="st10" d="M1828.24 319.83c-7.5-22.93-47.41-22.78-69.81-15.33-32.72 10.89-82.7 20.21-72.54 36.86 25.06 41.08 105.09 18.62 105.09 18.62s-7.58 9.88.66 28.71c4.53 10.36 4.82 24.89 4.16 35.87-.29 4.83 5.64 7.34 8.85 3.72l11.29-14.22-1.17 46.7c14.09-21.22 23.07-39.61 33.22-63.35l.05.03c37.72-75.74-19.8-77.61-19.8-77.61z"/><path class="st2" d="M1829.45 401.31c6.52 9.81-.31 30-20.76 35.84l3.66-35.54c2.53-4.86 12.81-6.76 17.1-.3z"/><linearGradient id="SVGID_2_" gradientUnits="userSpaceOnUse" x1="-7560.694" y1="-141.597" x2="-7560.694" y2="-191.359" gradientTransform="scale(-1 1) rotate(-4.146 4620.81 -80238.657)"><stop offset="0" stop-color="#ebecf5"/><stop offset=".351" stop-color="#cfdaef"/><stop offset=".768" stop-color="#b3c8e8"/><stop offset="1" stop-color="#a7c1e6"/></linearGradient><path d="M1745.99 530.09l-15.18-16.23 17.14-33.52c-.01 0-1.13 49.01-1.96 49.75z" fill="url(#SVGID_2_)"/><linearGradient id="SVGID_3_" gradientUnits="userSpaceOnUse" x1="-7546.178" y1="-151.416" x2="-7546.178" y2="-194.496" gradientTransform="scale(-1 1) rotate(-4.146 4620.81 -80238.657)"><stop offset="0" stop-color="#fbfcfd"/><stop offset=".997" stop-color="#d6e1f3"/></linearGradient><path fill="url(#SVGID_3_)" d="M1747.94 480.34l-17.14 33.52-27.54 3.29 44.91-39.94z"/><linearGradient id="SVGID_4_" gradientUnits="userSpaceOnUse" x1="-7613.002" y1="-136.928" x2="-7613.002" y2="-215.828" gradientTransform="scale(-1 1) rotate(-4.146 4620.81 -80238.657)"><stop offset="0" stop-color="#fbfcfd"/><stop offset=".313" stop-color="#f4f7fb"/><stop offset=".819" stop-color="#dfe7f5"/><stop offset=".997" stop-color="#d6e1f3"/></linearGradient><path fill="url(#SVGID_4_)" d="M1830.49 472.84l-48.55 64.54-26.28-25.71 61.56-50.84z"/><linearGradient id="SVGID_5_" gradientUnits="userSpaceOnUse" x1="-7577.292" y1="-141.597" x2="-7577.292" y2="-160.668" gradientTransform="scale(-1 1) rotate(-4.146 4620.81 -80238.657)"><stop offset="0" stop-color="#ebecf5"/><stop offset=".351" stop-color="#cfdaef"/><stop offset=".768" stop-color="#b3c8e8"/><stop offset="1" stop-color="#a7c1e6"/></linearGradient><path fill="url(#SVGID_5_)" d="M1755.66 511.67l-9.67 18.42 17.85-10.76z"/><linearGradient id="SVGID_6_" gradientUnits="userSpaceOnUse" x1="2119.314" y1="1972.902" x2="2110.823" y2="1906.035" gradientTransform="rotate(-16.757 -2166.78 3402.178)"><stop offset="0" stop-color="#fbfcfd"/><stop offset=".313" stop-color="#f4f7fb"/><stop offset=".819" stop-color="#dfe7f5"/><stop offset=".997" stop-color="#d6e1f3"/></linearGradient><path fill="url(#SVGID_6_)" d="M1526.94 776.89l-27.14 8.18-18.03-59.85 27.15-8.18z"/><linearGradient id="SVGID_7_" gradientUnits="userSpaceOnUse" x1="-13256.602" y1="699.012" x2="-13256.601" y2="725.018" gradientTransform="matrix(-1 0 0 1 -11753.742 0)"><stop offset="0" stop-color="#fbfcfd"/><stop offset=".303" stop-color="#f8fafc"/><stop offset=".611" stop-color="#edf2f9"/><stop offset=".92" stop-color="#dce5f4"/><stop offset=".997" stop-color="#d6e1f3"/></linearGradient><path fill="url(#SVGID_7_)" d="M1460.43 725.02h84.86v-26.01h-84.86z"/><path transform="rotate(-180 1505.235 1207.821)" class="st20" d="M1373.43 1196.99h263.6v21.66h-263.6z"/><path transform="rotate(-180 1505.235 1243.447)" class="st20" d="M1484.27 1236.89h41.93V1250h-41.93z"/><path transform="rotate(-180 1505.235 1289.779)" class="st20" d="M1496.9 1250h16.67v79.55h-16.67z"/><path transform="rotate(-180 1505.235 1375.655)" class="st20" d="M1494.55 1329.56h21.37v92.2h-21.37z"/><path class="st20" d="M1494.33 1218.65h48.74l-10.94 18.24h-53.79l-10.94-18.24z"/><path class="st21" d="M1518.3 1122.11c-.11-.01-.23-.01-.35-.02-.89-.05-1.78-.09-2.64-.13-1.44-.06-3.03-.11-4.76-.15-.36-.01-.71-.01-1.07-.02-.84-.02-1.73-.03-2.62-.04v-.02h-3.26v.02c-.89.01-1.79.02-2.63.04-.36.01-.7.01-1.07.02-1.73.05-3.32.1-4.76.15-.86.04-1.76.08-2.64.13-.12 0-.23.01-.35.02-43.33 2.15-130.81 13.6-114.32 74.88h254.78c16.5-61.28-70.98-72.72-114.31-74.88z"/><path class="st20" d="M1511.24 1416.93l106.83 48.56c.11-5.4-.96-12.6-6.05-18.67-7.32-8.72-62.16-34.32-100.79-51.03v21.14z"/><circle class="st20" cx="1600.76" cy="1466.43" r="13.18"/><path class="st20" d="M1499.23 1395.78c-38.63 16.71-93.46 42.32-100.78 51.03-5.09 6.07-6.16 13.27-6.05 18.67l106.83-48.56v-21.14z"/><circle class="st20" cx="1409.71" cy="1466.43" r="13.18"/><path class="st10" d="M1316.45 893.78c3.27-9.25 7.08-18.25 11.08-27.17h-.08s41.37-116.66 71.36-127.62c.74-.27 31.99-7.35 34.01-7.21l-18.99 134.83h-26.44c-8.94 19.09-18.06 38.08-27.98 56.49-4.92 9.14-9.43 19.2-17.88 25.26-8.75 6.27-22.27 6.63-28.67-2.26-3.47-4.81-4.19-11.22-4.03-17.26.31-12.04 3.62-23.77 7.62-35.06zm257.33-161.99c2.02-.15 33.27 6.94 34.01 7.21 29.99 10.96 75.79 137.81 75.79 137.81h-.01c2.34 5.59 4.55 11.24 6.58 16.98 3.99 11.28 7.31 23.02 7.63 35.06.16 6.04-.57 12.45-4.03 17.26-6.41 8.89-19.92 8.53-28.68 2.26-8.46-6.05-11.8-16.84-17.88-25.26-17.69-24.47-26.89-40.9-32.63-54.05l-21.79-2.45-18.99-134.82z"/><path class="st8" d="M1374.13 1418.52c-.13-1.2-.29-2.39-.56-3.55.29 1.21.49 2.4.56 3.55zm-80.01 23.01c.1-.03.2-.06.3-.1-.1.03-.2.06-.3.1zm1.9-.68c.56-.22 1.12-.46 1.68-.71-.57.27-1.12.49-1.68.71zm-20.42-3.05c-.31-.24-.62-.5-.93-.75.31.25.61.52.93.75zm-2.28-1.9c.15.13.3.28.45.41-.16-.13-.31-.27-.45-.41zm17.2-347.67c.34-1.05.74-2.05 1.2-3.02 6.54-13.85 24.53-19.6 36.99-25.21 21.07-9.49 42.94-16.81 64.24-25.68 26-10.83 54.71-20.51 82.98-15.94 10.53 1.7 20.48 5.78 29.31 11.75 8.83-5.98 18.78-10.05 29.31-11.75 28.27-4.57 56.98 5.11 82.98 15.94 21.3 8.87 43.17 16.19 64.24 25.68 12.46 5.61 30.45 11.36 36.99 25.21.46.97.86 1.97 1.2 3.02 4.18 12.94-1.52 27.13-7.81 38.13-3.8 6.65-14.83 25.82-22.48 27.43-31.48 7.08-64.1 6.19-95.9 2.2-19.3-2.42-38.45-6.03-57.51-10.02-9.74-2.04-20.76-3.93-31.01-7.49-10.25 3.56-21.27 5.46-31.01 7.49-19.06 3.98-38.21 7.6-57.51 10.02-31.8 3.99-64.42 4.87-95.9-2.2-7.65-1.61-18.68-20.79-22.48-27.43-6.31-11-12.02-25.2-7.83-38.13z"/><path class="st10" d="M1502.95 714.01c.12 0 .23 0 .35.01.12 0 .23-.01.35.02 51.22.49 104.14 31.97 104.14 31.97l-.75 14.46c-1.93 37.08-3.86 74.17-5.8 111.25l-3.54 67.91c-1.26 24.18-3.67 45.12 2.02 68.72 1.74 7.2 3.85 15.25 1.35 22.02-2 5.41-6.37 8.29-10.44 10.78-7.86 4.82-15.74 9.65-23.91 13.45-39.65 18.46-83.09 11.54-124.42 1.91-13.17-3.07-27.32-7.13-36.21-20.62-1.47-2.23-2.78-4.73-3.46-7.58-1.55-6.5.4-13.44 1.97-19.93 1.39-5.73 2.49-11.59 3.31-17.52 3.67-26.6.81-54.64-.59-81.42l-3.99-76.65c-1.51-28.93-3.02-57.86-4.52-86.8 0 .02 52.91-31.46 104.14-31.98z"/><path class="st3" d="M1503.07 775.76l-36.56-61.77h73.11z"/><linearGradient id="SVGID_8_" gradientUnits="userSpaceOnUse" x1="6858.102" y1="-4840.117" x2="6858.102" y2="-4910.077" gradientTransform="rotate(29.796 -6348.333 -12081.75)"><stop offset="0" stop-color="#ebecf5"/><stop offset=".351" stop-color="#cfdaef"/><stop offset=".768" stop-color="#b3c8e8"/><stop offset="1" stop-color="#a7c1e6"/></linearGradient><path d="M1510.64 762.98l14.71-7.49 18.62-54.04s-33.57 60.56-33.33 61.53z" fill="url(#SVGID_8_)"/><linearGradient id="SVGID_9_" gradientUnits="userSpaceOnUse" x1="6848.924" y1="-4910.689" x2="6884.883" y2="-4847.881" gradientTransform="rotate(29.796 -6348.333 -12081.75)"><stop offset="0" stop-color="#fbfcfd"/><stop offset=".303" stop-color="#f8fafc"/><stop offset=".611" stop-color="#edf2f9"/><stop offset=".92" stop-color="#dce5f4"/><stop offset=".997" stop-color="#d6e1f3"/></linearGradient><path fill="url(#SVGID_9_)" d="M1543.97 701.45l-18.63 54.04 25.67 15.9 5.53-51.32-11.25-21.06z"/><linearGradient id="SVGID_10_" gradientUnits="userSpaceOnUse" x1="-13613.298" y1="6882.341" x2="-13613.298" y2="6812.381" gradientTransform="scale(-1 1) rotate(29.795 3944.003 26605.408)"><stop offset="0" stop-color="#ebecf5"/><stop offset=".351" stop-color="#cfdaef"/><stop offset=".768" stop-color="#b3c8e8"/><stop offset="1" stop-color="#a7c1e6"/></linearGradient><path d="M1495.96 762.98l-16.67-6.77-16.67-54.76c.01 0 33.57 60.56 33.34 61.53z" fill="url(#SVGID_10_)"/><linearGradient id="SVGID_11_" gradientUnits="userSpaceOnUse" x1="-13623.094" y1="6811.535" x2="-13587.134" y2="6874.343" gradientTransform="scale(-1 1) rotate(29.795 3944.003 26605.408)"><stop offset="0" stop-color="#fbfcfd"/><stop offset=".303" stop-color="#f8fafc"/><stop offset=".611" stop-color="#edf2f9"/><stop offset=".92" stop-color="#dce5f4"/><stop offset=".997" stop-color="#d6e1f3"/></linearGradient><path fill="url(#SVGID_11_)" d="M1462.63 701.45l16.66 54.76-23.71 15.18-4.52-48.19 10.25-24.19z"/><path class="st2" d="M1234.38 1455.9c.12-.16.24-.32.37-.47 1.43-1.79 3.06-3.36 4.8-4.8a128.145 128.145 0 00.05-.03c3.7-3.04 7.95-5.4 12.21-7.51 1.36-.67 2.74-1.33 4.11-2 6.27-3.61 11.86-6.79 13.56-7.76.23-.18.48-.34.71-.53l.02.02c2.55-2.79 47.81-52.07 50.1-56.31 3.97-18.4.9-45.4.9-45.4l37.37-3.09s-5.3 33.42-.08 58.54c1.99 2.62 4.62 5.53 6.21 8.92.15.32.32.65.48.99-.2.05-.4.11-.6.16.16.04.33.06.48.12 5.33 2.16 8.54 18.33 9.32 23.46.44 2.85.65 5.85-.28 8.57-1.44 4.23-5.32 6.93-9.11 8.95-7.75 4.13-16.15 6.71-24.08 10.44-14.6 6.87-28.97 16.14-44.36 21.81-17.03 6.27-35.25 6.38-52.94 9.15-4.67.73-12.08.4-14.35-4.89-2.3-5.35 2.03-14.29 5.11-18.34z"/><path class="st10" d="M1228.7 1472.09c.1.77.28 1.49.57 2.16 1.56 3.64 5.55 4.93 9.41 5.15 1.75.1 3.48-.03 4.94-.26 8.85-1.39 17.82-2.11 26.72-3.26 3.34-.43 6.66-.93 9.96-1.54 1.18-.22 2.35-.46 3.52-.71 2.11-.46 4.22-.97 6.31-1.55a81.384 81.384 0 006.44-2.08c3.85-1.42 7.63-3.06 11.37-4.83 4.67-2.22 9.28-4.64 13.86-7.08 6.4-3.42 12.75-6.89 19.14-9.9 1.98-.93 3.99-1.79 6.02-2.63 2.02-.83 4.06-1.63 6.09-2.45 4.06-1.63 8.1-3.3 11.97-5.37 2.37-1.26 4.78-2.8 6.6-4.8.36-.4.71-.82 1.02-1.26.63-.88 1.14-1.84 1.5-2.9.35-1.02.54-2.08.61-3.15.03-.36.04-.72.04-1.08.01-1.45-.15-2.91-.37-4.33-.24-1.6-.73-4.28-1.44-7.28-.14-.6-.29-1.21-.45-1.83-.29-1.13-.62-2.29-.98-3.43-.26-.84-.54-1.67-.83-2.48-.39-1.08-.81-2.12-1.26-3.08-.25-.53-.51-1.03-.77-1.51-1.58-2.83-3.83-5.15-5.59-7.84-.23-.35-2.71-3.37-2.58-3.66-13.68 13.12-40.95 16.17-53.7 2.48-13.94 16.38-34.56 39.01-36.59 41.23-.12.06-.22.13-.33.21-.13.1-.27.2-.4.3-1.7.97-7.29 4.15-13.56 7.76-1.37.66-2.75 1.32-4.11 2-.98.49-1.96.99-2.94 1.51-.17.09-.33.18-.49.27-.97.52-1.93 1.06-2.88 1.63a47.453 47.453 0 00-5.9 4.11c-.72.43-1.4.84-2.02 1.21.65-.4 1.32-.78 1.97-1.18-.67.55-1.31 1.12-1.93 1.71-.26.24-.51.48-.76.73l-.63.66c-.51.54-1 1.1-1.47 1.69-.13.16-.25.32-.37.48-.19.25-.39.53-.59.81-.01.02-.02.04-.03.05-.28.41-.57.86-.86 1.33a35.16 35.16 0 00-2.62 5.21c-.17.42-.33.84-.47 1.27-.3.85-.55 1.72-.74 2.57-.2.86-.33 1.71-.4 2.53-.06.8-.05 1.57.03 2.32-.03.03-.03.06-.03.09zm40.76-38.76c-3.04 2.3-6.35 4.15-9.73 5.87-.09.05-.19.1-.28.14-1.1.55-2.2 1.09-3.31 1.63 4.44-2.55 8.87-5.11 13.32-7.64z"/><path class="st8" d="M1296.98 1085.06s-9.78.23-7.38 27.59c2.41 27.35 29.39 248.3 29.39 248.3l42.57 1.4s23.18-163.93-11.53-256.64c-.01 0-18.96-41.35-53.05-20.65z"/><path class="st2" d="M1776.09 1455.9c-.12-.16-.24-.32-.37-.47-1.43-1.79-3.06-3.36-4.8-4.8a128.145 128.145 0 01-.05-.03c-3.7-3.04-7.95-5.4-12.21-7.51-1.36-.67-2.74-1.33-4.11-2-6.28-3.61-11.86-6.79-13.56-7.76-.23-.18-.48-.34-.71-.53 0 .01-.01.01-.02.02-2.55-2.79-47.81-52.07-50.1-56.31-3.97-18.4-.9-45.4-.9-45.4l-37.38-3.09s5.3 33.42.08 58.54c-1.99 2.62-4.62 5.53-6.21 8.92-.15.32-.32.65-.48.99.2.05.4.11.6.16-.16.04-.33.06-.48.12-5.33 2.16-8.54 18.33-9.32 23.46-.44 2.85-.65 5.85.28 8.57 1.44 4.23 5.32 6.93 9.11 8.95 7.75 4.13 16.15 6.71 24.08 10.44 14.6 6.87 28.97 16.14 44.36 21.81 17.03 6.27 35.25 6.38 52.94 9.15 4.67.73 12.08.4 14.35-4.89 2.31-5.35-2.02-14.29-5.1-18.34z"/><path d="M1636.34 1418.52c.13-1.2.29-2.39.56-3.55-.29 1.21-.49 2.4-.56 3.55zm80.01 23.01c-.1-.03-.2-.06-.3-.1.1.03.2.06.3.1zm-1.9-.68c-.56-.22-1.12-.46-1.68-.71.57.27 1.12.49 1.68.71zm20.42-3.05c.31-.24.62-.5.93-.75-.31.25-.62.52-.93.75zm2.28-1.9c-.15.13-.3.28-.45.41.16-.13.31-.27.45-.41z" fill="#f8cfa6"/><path class="st10" d="M1781.78 1472.01c.09-.74.09-1.52.03-2.32-.07-.83-.2-1.68-.4-2.53a26.729 26.729 0 00-1.21-3.84 34.676 34.676 0 00-3.48-6.54c-.01-.02-.02-.04-.03-.05-.2-.29-.4-.56-.59-.81-.12-.16-.24-.32-.37-.48-.47-.59-.97-1.14-1.47-1.69l-.63-.66c-.25-.25-.5-.49-.76-.73a34.67 34.67 0 00-1.93-1.71 128.145 128.145 0 01-.05-.03c-1.85-1.52-3.83-2.87-5.9-4.11-.95-.57-1.91-1.11-2.88-1.63-.17-.09-.33-.18-.49-.27-.98-.52-1.96-1.02-2.94-1.51-1.36-.68-2.74-1.33-4.11-2-6.27-3.61-11.86-6.79-13.56-7.76-.13-.1-.27-.2-.4-.3-.1-.08-.21-.15-.33-.21-2.03-2.22-22.65-24.85-36.59-41.23-12.75 13.69-40.02 10.64-53.7-2.48.13.29-2.35 3.31-2.58 3.66-1.76 2.69-4.01 5.02-5.59 7.84-.27.47-.52.98-.77 1.51-.45.96-.87 2-1.26 3.08-.29.81-.57 1.64-.83 2.48-.35 1.14-.68 2.3-.98 3.43-.16.62-.31 1.23-.45 1.83a97.96 97.96 0 00-1.44 7.28c-.22 1.43-.38 2.89-.37 4.33 0 .36.01.72.04 1.08.08 1.08.26 2.13.61 3.15.36 1.06.87 2.02 1.5 2.9.31.44.65.86 1.02 1.26 1.82 2 4.22 3.53 6.6 4.8 3.88 2.07 7.91 3.74 11.97 5.37 2.03.81 4.07 1.62 6.09 2.45 2.02.83 4.04 1.69 6.02 2.63 6.39 3.01 12.73 6.47 19.14 9.9 4.57 2.44 9.18 4.87 13.86 7.08 3.74 1.77 7.52 3.42 11.37 4.83 1.06.39 2.13.76 3.21 1.11 1.07.35 2.15.67 3.23.97 2.09.59 4.19 1.1 6.31 1.55 1.17.25 2.34.49 3.52.71 3.3.62 6.62 1.11 9.96 1.54 8.89 1.16 17.87 1.88 26.72 3.26 1.46.23 3.19.35 4.94.26 3.86-.22 7.85-1.51 9.41-5.15.29-.67.47-1.4.57-2.16-.04-.04-.04-.07-.03-.09zm-27.45-31.04c-1.11-.53-2.21-1.08-3.31-1.63-.09-.05-.19-.1-.28-.14-3.38-1.71-6.68-3.57-9.73-5.87 4.45 2.53 8.88 5.09 13.32 7.64z"/><path class="st8" d="M1713.49 1085.06s9.78.23 7.38 27.59c-2.41 27.35-29.39 248.3-29.39 248.3l-42.57 1.4s-23.18-163.93 11.53-256.64c.01 0 18.96-41.35 53.05-20.65z"/><path class="st10" d="M1498.72 922.24c1.46-4.13-1.33-6.79-.89-10.87.32-2.99 2.57-4.84 4.42-6.89 2.94-3.25.83-5.81-.03-9.66-.19-.86 4.99-5.65 5.59-6.33 1.95-2.2 4.47-3.88 6.09-6.4 2.2-3.42-.14-6.14-2.5-8.46l-28.61 9.68c1.62-3.32 4.74-9.8 6.96-14.88 3.12-7.15-4.86-8.07-4.86-8.07-1.4 4.92-4.5 9.18-7.67 12.52l-9.35 7.72-14.66 12.1-16.18 8.41s-92.3-5.54-109.6 6.82c-7.35 5.25-17.11 14.64-18.42 24.44-2.49 18.62 17 26.74 31.24 28.45 19.4 2.33 36.39-7.92 54.23-14.18 7.3-2.56 14.61-5.06 21.96-7.45 6.64-2.16 15.08-6.43 22.03-6.7 0 0 52.91-2.07 52.99-2.08 3.44-.39 6.17-5.07 7.26-8.17z"/><path class="st10" d="M1507.87 922.24c-1.46-4.13 1.33-6.79.89-10.87-.32-2.99-2.57-4.84-4.42-6.89-2.94-3.25-.83-5.81.03-9.66.19-.86-4.99-5.65-5.59-6.33-1.95-2.2-4.47-3.88-6.09-6.4-2.2-3.42.14-6.14 2.5-8.46l28.61 9.68c-1.62-3.32-4.74-9.8-6.96-14.88-3.11-7.15 4.86-8.07 4.86-8.07 1.4 4.92 4.5 9.18 7.67 12.52l9.35 7.72 14.66 12.1 16.18 8.41s92.3-5.54 109.6 6.82c7.35 5.25 17.11 14.64 18.42 24.44 2.49 18.62-17 26.74-31.24 28.45-19.4 2.33-36.39-7.92-54.23-14.18-7.3-2.56-14.61-5.06-21.96-7.45-6.64-2.16-15.08-6.43-22.03-6.7 0 0-52.91-2.07-52.99-2.08-3.44-.39-6.17-5.07-7.26-8.17z"/><path class="st4" d="M1842.48 746.47c5.91 1.32 33.5-102.15 34.78-108.63 5.63-28.44 12.08-175.25-59.14-133.33-10.94 6.44-16.47 17.46-19.06 27.77-11.66 46.42-7.28 178.19-7.28 178.19s50.69 36 50.7 36z"/><path class="st2" d="M1836.2 706.88c-8.48-8.39-25.39-5.04-35.86-2-24.65 7.15-118.88 131.6-118.88 131.6l-20.37 9.36-22.28 4.66-14.2 2.97c-4.11.3-8.31.1-12.29-1.02-1.97-.55-3.9-1.78-5.96-1.88-1.56-.07-3.27.71-3.79 2.19-.38 1.07-.06 2.26.4 3.3 1.76 4.01 5.75 6.95 10.09 7.45 1.65.19 3.32.06 4.98.04 1.66-.02 3.36.1 4.89.75 1.53.65 2.87 1.93 3.22 3.55.48 2.21-.83 3.28-2.54 3.99-2.1.87-4 2.42-5.9 3.68-1.18.79-2.37 1.57-3.55 2.36-1.1.66-2.23 1.4-3.37 2.24-1.58 1.05-3.16 2.1-4.73 3.14-14.76 8.97-23.28 5.32-30.97 13.51-4.53 4.82 4.2 4.62 3.48 11.76-.41 4.1 22.09 3.55 17.8 7.47-4.3 3.92 7.46 10.73 26.96 10.68 17.01-.05 26.65-6.11 36.12-12.22.73-.31 1.41-.7 1.97-1.27.07-.08 45.63-48.51 45.63-48.51 5.9-6.87 42.83-33.97 50.09-38.92 8.01-5.47 115.67-82.67 79.06-118.88z"/><path class="st4" d="M1721.84 854.03c14.9-12.12 40.2-30.45 46.41-34.63 9.09-6.12 110.33-70.69 68.04-114.72-9.8-10.2-23.78-4.13-35.68-.98-22.49 5.95-85.15 82.91-109.08 113.15 10.78 11.82 21.05 24.05 30.31 37.18z"/><linearGradient id="SVGID_12_" gradientUnits="userSpaceOnUse" x1="228.903" y1="6731.992" x2="220.412" y2="6665.129" gradientTransform="rotate(-45.372 -6030.514 1974.844)"><stop offset="0" stop-color="#fbfcfd"/><stop offset=".313" stop-color="#f4f7fb"/><stop offset=".819" stop-color="#dfe7f5"/><stop offset=".997" stop-color="#d6e1f3"/></linearGradient><path fill="url(#SVGID_12_)" d="M1743.9 842.69l-19.91 20.17-44.48-43.91 19.91-20.17z"/><path class="st20" d="M1158.07 953.15h823.97v42.37h-823.97z"/><path class="st3" d="M1541.51 662.93l-4.05 51.08s-18.07 29.94-67.91-.02l-4.69-37.37 76.65-13.69z"/><linearGradient id="SVGID_13_" gradientUnits="userSpaceOnUse" x1="1501.138" y1="842.058" x2="1499.282" y2="927.462"><stop offset="0" stop-color="#fbfcfd"/><stop offset=".089" stop-color="#f5f7fb"/><stop offset=".388" stop-color="#e4ebf7"/><stop offset=".69" stop-color="#dae3f4"/><stop offset=".997" stop-color="#d6e1f3"/></linearGradient><path fill="url(#SVGID_13_)" d="M1383.9 955.78h232.38V825.04H1383.9z"/><linearGradient id="SVGID_14_" gradientUnits="userSpaceOnUse" x1="-5093.551" y1="949.032" x2="-4924.449" y2="949.032" gradientTransform="matrix(-1 0 0 1 -3137.243 0)"><stop offset="0" stop-color="#fbfcfd"/><stop offset=".089" stop-color="#f5f7fb"/><stop offset=".388" stop-color="#e4ebf7"/><stop offset=".69" stop-color="#dae3f4"/><stop offset=".997" stop-color="#d6e1f3"/></linearGradient><path fill="url(#SVGID_14_)" d="M1787.29 955.38l169.02-1.21-.09-11.49-169.01 1.22z"/><linearGradient id="SVGID_15_" gradientUnits="userSpaceOnUse" x1="-4933.751" y1="876.807" x2="-4807.172" y2="876.807" gradientTransform="matrix(-1 0 0 1 -3137.243 0)"><stop offset="0" stop-color="#fbfcfd"/><stop offset=".089" stop-color="#f5f7fb"/><stop offset=".388" stop-color="#e4ebf7"/><stop offset=".69" stop-color="#dae3f4"/><stop offset=".997" stop-color="#d6e1f3"/></linearGradient><path fill="url(#SVGID_15_)" d="M1669.93 805.32l117.54 150.06 9.04-7.09-117.55-150.06z"/><path class="st2" d="M2047.52 1361.31c-3.45-7.48-16.43-11.68-23.49-15.31-6.39-3.29-15.13-2.89-16.72-6.9-4.62-11.65-6.34-35.83-6.34-35.83l-38.56 12.81s11.07 29.08 9.59 47.99c-1.49 18.96-10.06 70.51-10.06 70.51s-19.2 37.11-19.73 39.39c-.53 2.28-2.54 7.44-1.58 15.58 0 0 5.84 9.9 43.35-27.15 0 0 17.37-15.22 34.17-47.25 4.08-6.63 8.16-13.26 12.24-19.9 4.19-6.81 17.85-26.52 17.83-30.33.01-1.46-.25-2.63-.7-3.61z"/><path class="st9" d="M2030.41 1395.26c-4.08 6.63-8.16 13.26-12.24 19.9-16.79 32.03-34.17 47.25-34.17 47.25-37.5 37.05-43.35 27.15-43.35 27.15-.96-8.14 1.05-13.3 1.58-15.58.53-2.28 19.73-39.39 19.73-39.39l.02-.2c14.63 2.13 24.54-.94 31.48-16.51 11.09-24.87 12.16-50.18 31.59-71.39 7.21 3.52 19.17 7.67 22.47 14.83.45.98.7 2.15.71 3.62.03 3.8-13.64 23.52-17.82 30.32z"/><path class="st12" d="M1886.02 1064.32s-10.32 2.45-2.33 28.42c7.99 25.97 80.52 234.06 80.52 234.06l39.61-7.06s-8.06-164.18-63.27-246.19c.01 0-22.53-37.03-54.53-9.23z"/><path class="st2" d="M1938.29 1390.66c-.88-8.19-11.84-16.32-17.36-22.01-5.01-5.16-13.41-7.57-13.64-11.88-.66-12.51 5.44-35.97 5.44-35.97l-40.63-.18s1.2 31.09-6.25 48.53c-7.46 17.49-32.05 63.61-32.05 63.61s-30.05 29.03-31.28 31.02c-1.23 1.99-4.79 6.24-6.47 14.26 0 0 2.37 11.25 49.75-11.88 0 0 21.33-8.88 47.47-33.86 5.99-4.98 11.97-9.96 17.96-14.94 6.14-5.11 25.39-19.43 26.58-23.05.47-1.39.6-2.58.48-3.65z"/><path class="st9" d="M1911.23 1417.37c-5.99 4.98-11.97 9.96-17.96 14.94-26.15 24.98-47.47 33.86-47.47 33.86-47.37 23.13-49.75 11.88-49.75 11.88 1.69-8.02 5.25-12.27 6.47-14.26 1.23-1.99 31.28-31.02 31.28-31.02l.08-.19c13.18 6.7 23.55 6.95 35.11-5.59 18.46-20.02 27.55-43.67 52.74-57.55 5.71 5.64 15.72 13.4 16.56 21.23.12 1.07-.02 2.26-.48 3.66-1.2 3.61-20.44 17.92-26.58 23.04z"/><path class="st12" d="M1880.13 1057.64c45.09-15.99 93.73-22.42 141.25-27.63 23.61-2.59 50.9-9.21 74.67-10.14 45-1.77 97.72 17.98 91.51 70.52-.78 6.65-2.92 13.07-6.26 18.94-39.31 69-148.23 40.51-209.21 28.55-26.48-5.19-52.91-10.93-79.01-17.72-33.38-30.44-12.95-62.52-12.95-62.52z"/><path class="st12" d="M1880.13 1057.64s-10.56-.98-11.28 26.19c-.73 27.16 1.53 247.52 1.53 247.52l39.78 5.96s44.81-158.16 18.69-253.51c.01 0-9.52-42.29-48.72-26.16z"/><path class="st20" d="M2221.75 859.31c.45-1.14 1.12-2.13 1.91-2.99-39.56-12.88-53.65 45.58-58.3 74.92-.02.08-.03.16-.04.24-.1.61-.2 1.22-.28 1.81-.15.98-.3 2.07-.46 3.26l-.09.73c-.07.57-.15 1.19-.22 1.8h-.02l-.12 1.12-.12 1.12h.02c-.06.61-.12 1.23-.17 1.81-.02.25-.05.48-.07.74-.1 1.19-.18 2.29-.25 3.28-.04.6-.07 1.21-.11 1.82-.01.08-.01.16-.01.24-1.71 28.98 12.99 87.61 53.1 83.91-32.91-74.9 3.57-169.61 5.23-173.81z"/><path class="st20" d="M2240.41 1035.69c-38.33-68.47.17-168.52.56-169.52 1.98-5.05-.71-10.68-6.02-12.58-4.1-1.47-8.56-.24-11.29 2.73-.79.86-1.46 1.85-1.91 2.99-1.66 4.2-38.14 98.91-5.25 173.8 1.75 3.98 3.64 7.93 5.8 11.78 28.15 50.28 29.18 124.97 18.23 145.09-1.73 3.18-5.38 8.59-10.45 9.2-5.62.67-9.61 5.56-8.9 10.91.65 4.94 5.07 8.56 10.17 8.56.43 0 .85-.03 1.29-.08 10.65-1.26 19.93-8.23 26.12-19.59 13.78-25.34 13.46-106.48-18.35-163.29z"/><path class="st20" d="M1970.88 1196.99h263.6v21.66h-263.6z"/><linearGradient id="SVGID_16_" gradientUnits="userSpaceOnUse" x1="1329.967" y1="1243.447" x2="1371.893" y2="1243.447" gradientTransform="translate(751.748)"><stop offset="0" stop-color="#2b3562"/><stop offset=".297" stop-color="#303765"/><stop offset=".657" stop-color="#3d3e70"/><stop offset="1" stop-color="#504a80"/></linearGradient><path fill="url(#SVGID_16_)" d="M2081.72 1236.89h41.93V1250h-41.93z"/><path class="st20" d="M2094.34 1250h16.67v79.55h-16.67zm-2.35 79.56h21.38v92.2h-21.38zm21.59-110.91h-48.74l10.95 18.24h53.78l10.94-18.24z"/><path class="st21" d="M2089.61 1122.11c.11-.01.23-.01.35-.02.89-.05 1.78-.09 2.64-.13 1.44-.06 3.03-.11 4.76-.15.36-.01.71-.01 1.07-.02.84-.02 1.73-.03 2.62-.04v-.02h3.26v.02c.89.01 1.79.02 2.63.04.36.01.7.01 1.07.02 1.73.05 3.32.1 4.76.15.86.04 1.76.08 2.64.13.12 0 .23.01.35.02 43.33 2.15 130.81 13.6 114.32 74.88H1975.3c-16.5-61.28 70.98-72.72 114.31-74.88z"/><path class="st20" d="M2096.67 1395.78c-38.63 16.71-93.46 42.32-100.79 51.03-5.09 6.07-6.16 13.27-6.04 18.67l106.83-48.56v-21.14z"/><path class="st20" d="M2020.34 1466.43c0 7.28-5.9 13.18-13.18 13.18-7.28 0-13.18-5.9-13.18-13.18 0-7.28 5.9-13.18 13.18-13.18 7.28 0 13.18 5.9 13.18 13.18zm88.34-49.5l106.83 48.56c.11-5.4-.96-12.6-6.05-18.67-7.32-8.72-62.16-34.32-100.78-51.03v21.14z"/><path class="st20" d="M2185.02 1466.43c0 7.28 5.9 13.18 13.18 13.18s13.18-5.9 13.18-13.18c0-7.28-5.9-13.18-13.18-13.18s-13.18 5.9-13.18 13.18z"/><path class="st8" d="M2066.13 608.56c13.64-13.39 35.91-15.48 53.1-14.3 24.35 1.67 50.62 12.77 62.87 35.94 22.24 42.06-26.23 106.08-68.82 104.78-5.19-.16-10.6-1.35-14.69-4.75-5.05-4.2-5.53-10.46-8.06-16.37-1.32-3.07-3.2-5.8-5.14-8.44-6.94-9.45-14.81-18.12-21.25-27.98-6.44-9.87-11.48-21.27-11.84-33.56-.4-14.14 4.98-26.64 13.83-35.32z"/><path class="st2" d="M2109.29 719.43c3.67-2.85 7.2-5.85 10.66-8.95 4.44 15.25 9.49 30.83 15.91 45.29.71 3.68 2.97 5.7 2.96 8.41 0 0-9.3 36.29-45.45 28.11 0 0 7.23-31.44-.32-56.33 5.13-5.81 10.23-11.56 16.24-16.53z"/><path class="st2" d="M2065.02 625.92s-35.23 78.74-13.66 111.23c0 0 45.06 16.02 76.03-22.63 30.96-38.65 15.18-111.84-62.37-88.6z"/><path class="st2" d="M2058.28 663.87l-7.2 34.16-16.28-3.44zm-131.11 23.61c-.6.72-1 1.59-1.17 2.51l-9.35 53.18c-.3 1.68.23 3.4 1.41 4.64l27.2 28.48s49.77 124 71.06 148.72c9.36 10.86 29.59 6.53 38.88-5.25 6.95-8.81.59-21.15-4-29.47-6.74-12.24-83.41-128.13-83.6-128.55-8.61-18.4-23.7-38.61-28.04-44.27-.79-1.02-1.15-2.27-1.08-3.56l1.07-17.56c.06-1.04-.18-2.07-.69-2.98l-2.9-5.1c-1.84-3.26-6.38-3.67-8.79-.79z"/><path class="st10" d="M2059.54 957.03c.28-8 1.77-20.24-1.18-27.81-6.89-17.7-15.99-37.84-15.99-58.59 0-46.7 93.02-115.21 93.5-114.87 2.73 1.94 5.15 4.12 7.34 6.48.05.05.11.1.16.16.75.81 1.44 1.65 2.12 2.5.27.34.54.63.82 1.01.97 1.26 1.88 2.57 2.74 3.92.1.16.19.26.3.43.04.06.06.12.1.17a58.12 58.12 0 012.69 4.82c4.2 8.07 6.68 17.13 7.71 26.07.29 2.49.46 4.97.58 7.46.63 8.72.42 17.48-.25 25.62-.22 2.7-.49 5.34-.8 7.89-2.85 23.98-2.41 47.66-.71 71.64 1.67 17.79 4.66 35.45 8.96 52.79.84 2.92 1.68 5.85 2.57 8.75 2.57 8.37 5.36 16.66 8 25.01.99 3.11 1.72 5.38 1.93 7.33 5.13 15.12 10.02 30.3 11.62 46.13.32 3.16.19 7-2.53 8.66-1.42.86-3.18.86-4.83.83-20.87-.36-41.73-.73-62.6-1.09-15.37-.27-25.75-7.58-36.94-18.12-12.42-11.7-28.91-9.09-28.84-26.16v-.03c-.18-1.21-.21-2.45-.21-3.68.02-19.18 3.08-38.17 3.74-57.32z"/><path class="st8" d="M2128.9 687.4s1.54 65.21-59.21 84.24c0 0 36.52 9.45 57.14-.23 28.28-13.28 24.82 41.94 55.7 20.02 0 0 18.27-103.25 3.1-152.49-15.17-49.24-115.94-15.67-115.94-15.67l59.21 64.13z"/><path class="st2" d="M2126.39 685.33s18.03-13.98 23.34-.54c4.54 11.49-6.23 33.34-27.97 34.59l4.63-34.05z"/><path class="st9" d="M2111.06 968.72c.04-1.93.07-3.86.08-5.77.1-21.89 1.13-43.77 2.3-65.63.73-13.59.61-27.81 1.73-41.72h43.07c-1.39 19.46-.94 38.8.45 58.33.88 9.4 2.16 18.75 3.77 28.04-2.38 23.02-5.47 51.14-19.39 69.57-4.7 6.22-10.74 9.84-16.23 9.18-5.59.35-11.61-.88-16.46-1.98-5.23-1.19-28.08-7.4-54.2-14.69.72-14.9 2.56-29.72 3.22-44.62 18.69 2.82 37.15 5.98 51.66 9.29z"/><path class="st2" d="M2106.56 822.56c2.97-13.32 8.76-24.51 20.16-29.19 22.71-9.32 29.72 17.2 31.13 35.5 2.46 31.95-3.25 65.2-6.56 97.07-2.46 23.66-5.09 54.01-19.8 73.49-8.15 10.79-20.37 13.83-26.68.11-6.94-15.1-5.32-32.34-5.25-48.71.1-21.89 1.13-43.77 2.31-65.63 1.11-20.53.2-42.5 4.69-62.64zm-142.11 116.71l-3.92-2.68a4.86 4.86 0 00-.54-.33l-34.88-18.28a5.38 5.38 0 00-4.85-.07l-48.54 23.66c-.84.41-1.57 1.04-2.09 1.82-2.1 3.1-.46 7.36 3.19 8.23l5.7 1.37c1.01.24 2.07.19 3.05-.16l16.58-5.87c1.22-.43 2.52-.42 3.72.05 6.64 2.61 30.23 11.54 50.29 14.74 2.54.41 4.99-1.15 5.83-3.59l6.46-18.89z"/><path class="st2" d="M2128.23 1002.34c-6.55 9.11-20.16 6.4-29.43 4.29-13.62-3.1-146.52-40.15-146.03-42.01 0-.01 7.21-28.37 7.21-28.37s132.92 13.61 162.55 27.26c13.03 6.01 14.45 26.65 5.7 38.83z"/><path class="st20" d="M1970.3 1476.26l.12 3.35h-18.6l-26.55-481.51h26.19zM1185.6 998.1h26.18l-26.54 481.51h-18.6z"/><path class="st2" d="M1554.73 600.26l-5 25.47-7.62 38.85-2.14 10.93c-36.55 33.43-77.62 25.53-86.31 7.94-8.69-17.59 9.45-97.2 9.45-97.2l91.62 14.01z"/><path class="st3" d="M1467.94 621.08l-2.36 34.72-19.83-1.36z"/><path class="st8" d="M1539.26 587.65l-5.81 51.13 14.29-15.83-11.3 78.64s60.32-67.18 48.02-104.39l-5.49-5.03s20.69-31.8-38.28-41.26-96.39-14.26-97.63 10.94c-1.24 25.2 3.32 40.57 3.32 40.57l92.88-14.77z"/><path class="st2" d="M1563.67 626.42c5.76 10.65-.47 30.92-21.95 34.98l4.42-36.27c3.05-4.73 13.74-5.71 17.53 1.29z"/><path class="st8" d="M1553.71 595.31l-60.09 7.06L1523 575.5zM881.14 740.52c-.09.01-15.91-12.25-19.51-29.44-5.21-24.87-4.5-50.4-.55-75.39 3.25-20.5 8.61-40.83 16.1-60.74 6.53-17.39 24.65-86.11 64.32-63.28 9.89 5.69 13.79 15.09 14.9 23.83 4.97 39.34-28.59 181.01-28.59 181.01s-41.31 23.64-46.67 24.01z"/><linearGradient id="SVGID_17_" gradientUnits="userSpaceOnUse" x1="1085.344" y1="598.973" x2="1137.77" y2="598.973"><stop offset="0" stop-color="#fbfcfd"/><stop offset=".089" stop-color="#f5f7fb"/><stop offset=".388" stop-color="#e4ebf7"/><stop offset=".69" stop-color="#dae3f4"/><stop offset=".997" stop-color="#d6e1f3"/></linearGradient><path fill="url(#SVGID_17_)" d="M1085.34 563.53l5.13-3.26 47.3 74.14-5.13 3.27z"/><path class="st2" d="M1046.09 630.49l3.27-3.57c.15-.16.3-.31.46-.45l30.38-26.18a5.454 5.454 0 014.79-1.19l53.6 12.27c.93.21 1.79.67 2.49 1.32 2.8 2.59 2.15 7.19-1.26 8.9l-5.34 2.68c-.95.48-2.01.66-3.06.55l-18.31-3.57c-1.31-.15-2.6.16-3.68.91-5.98 4.12-27.32 18.42-46.48 26.22-2.43.99-5.22.01-6.61-2.22l-10.25-15.67z"/><path class="st8" d="M881.14 740.52s-21.69-38.23 6.69-56.22c28.38-17.99 79.57-34.12 169.37-75.8l22 51.5s-160.64 90.5-198.06 80.52z"/><path class="st5" d="M1150.53 699.01s-28.25-27.67-8.19-50.27c20.06-22.6 66.59-45.37 133.87-103.72l-3.88 49.04c.01 0-86.96 104.28-121.8 104.95z"/><linearGradient id="SVGID_18_" gradientUnits="userSpaceOnUse" x1="-1059.624" y1="-673.582" x2="-992.849" y2="-673.582" gradientTransform="rotate(19.317 -3544.692 6655.018)"><stop offset="0" stop-color="#f6dcd1"/><stop offset=".274" stop-color="#f5cdbe"/><stop offset=".733" stop-color="#f3b7a3"/><stop offset="1" stop-color="#f2af98"/></linearGradient><path d="M1251.03 562.8l47.15-29.56s4 14.25.14 18.8c-3.86 4.55-3.57 9.56-6.43 14.05s-4.5 17.86-11.08 23.97c-6.58 6.11-20.56 4.31-27.29 9.72-6.72 5.42-20.15 17.9-20.15 17.9l-19.68-25.04 19.09-15.89s6.45-27.52 25.86-36.09l-7.61 22.14z" fill="url(#SVGID_18_)"/><linearGradient id="SVGID_19_" gradientUnits="userSpaceOnUse" x1="1239.138" y1="498.772" x2="1220.572" y2="705.474"><stop offset="0" stop-color="#fbfcfd"/><stop offset=".089" stop-color="#f5f7fb"/><stop offset=".388" stop-color="#e4ebf7"/><stop offset=".69" stop-color="#dae3f4"/><stop offset=".997" stop-color="#d6e1f3"/></linearGradient><path fill="url(#SVGID_19_)" d="M1245.8 651.82l-96.86.18 70.8-163.01 96.38 3.66z"/><linearGradient id="SVGID_20_" gradientUnits="userSpaceOnUse" x1="-604.495" y1="-139.245" x2="-559.117" y2="-139.245" gradientTransform="rotate(10.463 -3562.562 9846.69)"><stop offset="0" stop-color="#fbfcfd"/><stop offset=".089" stop-color="#f5f7fb"/><stop offset=".388" stop-color="#e4ebf7"/><stop offset=".69" stop-color="#dae3f4"/><stop offset=".997" stop-color="#d6e1f3"/></linearGradient><path fill="url(#SVGID_20_)" d="M1144.38 647.2l4.56 4.8 70.8-163.01-4.56-4.8z"/><linearGradient id="SVGID_21_" gradientUnits="userSpaceOnUse" x1="-564.472" y1="-232.779" x2="-463.681" y2="-232.779" gradientTransform="rotate(10.463 -3562.562 9846.69)"><stop offset="0" stop-color="#fbfcfd"/><stop offset=".089" stop-color="#f5f7fb"/><stop offset=".388" stop-color="#e4ebf7"/><stop offset=".69" stop-color="#dae3f4"/><stop offset=".997" stop-color="#d6e1f3"/></linearGradient><path fill="url(#SVGID_21_)" d="M1215.18 484.19l96.38 3.64 4.56 4.82-96.38-3.66z"/><path class="st2" d="M1288.65 524.04l5.82 23.77-15.99 31.88-10.39-42.69s5-4.66 7.21 1.33l-1.48-10.29c.01.01.53-11.1 14.83-4z"/><path class="st8" d="M684.42 1122.07c6.4-5.09 13-10.64 17.7-19.29 2.77-5.1 4.72-10.99 6.61-16.82 3.69-11.4 7.36-23.32 7.66-35.18.23-8.99-1.5-17.65.1-26.69 1.34-7.59 4.82-14.32 7.75-21.18 4.07-9.53 7.29-20.23 7.47-30.69.13-7.35-1.24-14.13-2.36-20.94-2.89-17.59-4.19-36.19-3.86-55.18.14-7.74.5-15.89-1.61-22.31a90.565 90.565 0 01-4.26 19.25c-3.59 10.53-8.97 19.72-14.51 28.35-10.83 16.89-22.61 32.39-32.79 50.19-10.18 17.79-18.87 38.55-21.51 60.37-1.22 10.11-1.13 20.32-3.44 30.28-6.11 26.37-27.21 44.18-31.02 70.95-.79 5.56-.74 11.08-.69 16.54.07 6.66-2.04 31.96 3.24 30.04 2.8-1.02 7.88-8.89 10.51-11.59 3.46-3.55 6.99-6.92 10.56-10.16 7.3-6.64 14.77-12.71 22.27-18.62 6.68-5.26 16.32-9.93 22.18-17.32z"/><path class="st4" d="M642.47 1130.95c12.05-14.19 21.49-32.68 28.21-52.51 3.32-9.95 6.16-20.21 8.39-30.6 2.24-10.34 3.87-20.99 5.77-31.74.98-5.38 2.05-10.78 3.3-16.18 1.26-5.41 2.83-10.82 4.54-16.02 3.55-10.34 7.56-20.17 11.58-29.87 3.96-9.74 7.99-19.38 11.22-29.46 3.33-10.02 5.75-20.57 6.57-31.31.24 10.55-1.8 21.67-4.53 32.24-2.83 10.61-6.53 20.74-10.25 30.71-3.68 10-7.57 19.77-10.74 29.78-1.55 5.03-3 9.96-4.15 15.12-1.16 5.15-2.15 10.4-3.09 15.68-1.96 10.56-3.61 21.34-6.11 32.15-2.55 10.72-5.58 21.32-9.42 31.44-3.81 10.12-8.33 19.79-13.61 28.42-5.28 8.61-11.26 16.17-17.68 22.15z"/><path class="st8" d="M731.36 1028.98c-7.51 1.99-15.14 4.27-21.39 8.88-17.27 12.72-18.62 38.12-31.36 55.37-9.52 12.89-24.93 20.51-34.27 33.54-5.05 7.04-8.06 15.31-11.01 23.46-3.1 8.57-6.2 17.14-9.31 25.7 37.09-9.48 73.18-22.9 107.46-39.96 6.12-3.05 12.29-6.29 17.09-11.15 9.44-9.57 12.15-23.91 12.31-37.35.14-11.4-1.17-23.14 2.51-33.92 6.15-18.04 22.3-24.18 35.11-36-19.2-3.72-48.35 6.45-67.14 11.43z"/><path class="st4" d="M773.76 1026.2c-6.33 3.49-12.76 6.78-18.79 10.66-6.06 3.79-11.82 8.03-16.73 13.03-4.88 5.04-8.81 10.79-11.4 17.29-2.7 6.46-4.54 13.38-6.69 20.34-1.11 3.47-2.32 6.95-3.79 10.37-1.48 3.42-3.24 6.72-5.19 9.88-4.01 6.26-8.87 11.89-14.24 16.88-10.7 10.09-23.14 17.7-35.61 24.97 5.7-4.45 11.55-8.68 17.09-13.27 5.6-4.49 11-9.21 15.94-14.31 4.89-5.14 9.45-10.57 13.02-16.61 1.76-3.03 3.41-6.1 4.75-9.33 1.35-3.23 2.47-6.58 3.54-9.99 2.2-6.79 4.08-13.87 7.09-20.68 2.98-6.82 7.44-13.16 12.93-18.15 10.99-10.19 24.69-15.88 38.08-21.08z"/><path class="st10" d="M595.07 1053.95c-9.3-15.77-22.63-29.72-39.56-36.68-23.54-9.68-52.23-5.37-73.16-19.85-4.26-2.94-8.02-6.58-12.47-9.23-9.94-5.92-22.11-6.3-33.68-6.51-1.64-.03-3.41-.02-4.72.96-.96.72-1.53 1.85-1.9 2.99-2.33 7.02 1.35 14.75 6.5 20.05 5.15 5.31 11.71 9.04 17.13 14.07 9.2 8.54 14.69 20.45 17.75 32.62 3.06 12.17 3.92 24.77 5.22 37.26.52 4.96 1.13 10.01 3.25 14.53 3.34 7.14 9.99 12.1 16.67 16.28a168.186 168.186 0 0034.96 16.61c26.08 8.88 55.63 12.03 75.91 30.69 2.15 1.98 4.17 4.11 6.52 5.84 4.48 3.3 10.2 5.02 15.72 4.25 2.11-7.02-1.01-14.41-3.63-21.26-6.77-17.68-8.18-35.39-11.5-53.77-3.07-16.8-10.39-34.23-19.01-48.85z"/><path class="st10" d="M603.98 915.14c14.89 19.88 22.7 44.95 21.75 69.78-.87 22.54-8.63 45.54-2.22 67.17 3.13 10.55 9.51 20.13 11.02 31.03 3.57 25.92-20.97 48.13-22.21 74.27-4.99-.88-7.4-6.39-9.97-10.76-7.19-12.23-20.6-19.11-31.58-28.1-19.11-15.66-31.5-39.26-33.54-63.88-2.45-29.55 9.34-59.03 6.05-88.5-1.13-10.14-4.03-20-5.74-30.06-2.36-13.93-2.36-28.24-.12-42.18 1.82-11.3 5.17-31.8 14.03-39.4 15.85 21.76 36.43 39.12 52.53 60.63z"/><path class="st10" d="M646.95 971.6c-4.55 5.25-10.02 9.79-13.64 15.73-3.18 5.21-4.76 11.24-5.76 17.26a100.451 100.451 0 00-.31 30.67c.74 5.11 1.87 10.22 1.51 15.37-1.4 19.8-23.14 31.96-22.98 51.77.06 6.69 1.96 13.2 3.93 19.59a789.28 789.28 0 0019.1 54.74c1.85-7.91 3.72-15.88 7.2-23.21 2.15-4.53 4.9-8.77 6.87-13.38 5.76-13.48 4.45-29 .54-43.12-1.19-4.32-2.63-8.78-1.83-13.19.56-3.08 2.19-5.86 3.96-8.44 5.94-8.61 14.29-14.38 21.41-21.81 6.93-7.23 9.91-17.27 12.66-26.9 2.32-8.12 4.66-16.37 4.6-24.81-.06-7.87-2.2-15.57-4.32-23.15-5.25-18.72-8.79-39.63-16.42-57.42-3.01 6.4-1.23 15.8-2.85 22.99-2.24 10.02-6.93 19.53-13.67 27.31z"/><path class="st6" d="M554.71 892.52c5.72 21.07 13.2 41.61 17.46 63.28 2.3 10.75 3.16 22 3.43 32.96.2 10.98.15 21.9.24 32.72.09 5.41.22 10.81.63 16.16.34 5.36.82 10.69 1.67 15.95.75 5.28 1.98 10.45 3.32 15.58 1.38 5.07 3.2 10.27 4.98 15.35 7.1 20.47 15.98 40.31 25.57 59.99-12.55-17.94-22.89-37.48-31.18-57.87-2.01-5.15-3.99-10.2-5.68-15.61-1.68-5.35-2.94-10.83-3.81-16.35-1.93-11.02-2.33-22.15-2.34-33.15-.05-11.01.58-21.91.77-32.76.47-10.87-.33-21.48-1.93-32.21-3.21-21.4-9.41-42.49-13.13-64.04zm-95.91 113.66c17.36 6.91 34.08 16.22 48.29 28.97 7.15 6.21 13.57 13.75 18.59 21.88 5.12 8.1 9.15 16.63 13.46 24.83 4.17 8.26 8.57 16.29 14.07 23.38 5.35 7.19 12.24 13.08 19.55 18.7 7.32 5.58 15.11 10.87 22.37 16.93a99.96 99.96 0 0110.22 9.84c3.16 3.53 5.83 7.46 8.14 11.52-2.93-3.66-6.07-7.08-9.53-10.14-3.49-3.03-7.09-5.9-10.93-8.47-7.58-5.28-15.67-9.87-23.48-15.21-1.97-1.29-3.89-2.72-5.83-4.09-1.88-1.49-3.79-2.91-5.59-4.54-3.68-3.1-7.08-6.65-10.16-10.39-6.12-7.56-10.76-15.98-15.11-24.31-4.24-8.38-8.19-16.77-12.87-24.58-4.5-7.95-10.18-14.85-16.68-21.37-12.93-12.98-28.43-23.42-44.51-32.95zm203.91-33.81c-.23 15.41-3.16 30.78-7.43 45.61-4.19 14.88-9.56 29.32-14.29 43.86-4.8 14.51-8.88 29.24-12.2 44.16-3.25 14.93-5.76 30.05-7.24 45.37-.35-15.39.96-30.86 3.64-46.08 2.62-15.24 6.56-30.23 11.33-44.92 4.87-14.66 10.4-28.97 15.26-43.47 4.81-14.5 8.88-29.26 10.93-44.53z"/><path class="st12" d="M685.07 1347.51H572.53c-7.25 0-13.13-5.88-13.13-13.13l-22.04-156.63c0-7.25 5.88-13.13 13.13-13.13h156.63c7.25 0 13.13 5.88 13.13 13.13l-22.04 156.63c-.01 7.25-5.89 13.13-13.14 13.13z"/></g></switch></svg>