<svg version="1.1" id="Слой_1" xmlns="http://www.w3.org/2000/svg" x="0" y="0" viewBox="0 0 3006 1670" xml:space="preserve"><style>.st2{fill:#e73938}.st3{fill:#da706b}.st4{fill:#ead2bf}.st5{fill:#f3dcc9}.st11{fill:#92436b}</style><ellipse cx="1470.69" cy="743.17" rx="980.92" ry="700.98" opacity=".69" fill="#b0424a"/><path d="M1138.14 1535.56c-.24.82 1126.69 208.26 1126.69 1.37 0-3.74-1126.69-1.37-1126.69-1.37z" fill="#b0424a"/><path class="st2" d="M2721.75 801.28c-33.06-125.03-214.48-136.92-343.43-96.23l-110.07 146.74 54.78 77.79-143.8 141.88 65.05 270.8-112.98-258.14 75.32-127.99-75.32-60.44 103.93-124.43c-33.01-41.62-115.85-126.95-233.1-114.81-401.55 41.57-48.86 809.24-48.86 809.24l-592.29 22.65-45.97 48.62 949.81 1.22c.01-.01 544.37-406.2 456.93-736.9z"/><path class="st2" d="M1360.99 1488.33l-45.97 48.61 949.81 1.23-311.55-72.49z"/><path class="st3" d="M1315.02 1098.25l23.78 129.34 228.94-145.7-205.15-23.78z"/><path class="st4" d="M1554.37 1044.73s38.31-89.74 123.39-37.28c32.21 19.86 29.18 47.5 17.43 85.88-14.14 46.19-285.02 226.43-314.76 285.9-29.73 59.47-34.13 90.53-10.35 100.94 23.79 10.41 30.46 34.35 20.05 34.35-10.4 0-69.77-3.86-69.77-3.86l-24.67-155.21s159.07-208.13 223-231.91c63.92-23.8 35.68-78.81 35.68-78.81z"/><path class="st5" d="M1362.59 1058.11s99.6-43.11 163.53-65.41c63.92-22.3 109.07-1.71 120.42 19.33 14.55 26.97 32.94 76.85-25.04 118.47-57.97 41.63-285.67 190.76-296.07 223.46-10.4 32.71-11.15 140.49 0 151.63 11.15 11.15 41.63 4.46 41.63 22.3s-78.95 8.87-87.82 0c-8.87-8.87-13.28-74.33-32.6-93.66-19.33-19.33-57.73-41.94-31.72-67.95 26.01-26.02 91.18-74.77 122.4-169.91s196.23-112.98 196.23-112.98l-170.96-25.28z"/><path class="st4" d="M1376.71 870.79l181.23 149.32 29.38-17.01 26.73-21.96-118.67-209.89z"/><path d="M1470.65 904.4l32.67 10 16.85-65.41v82.26l42.62 5.95s19.34-256.83 19.34-299.45c0-42.62 37.03-85.2 0-122.23-37.02-37.03-32.22-33.24-32.22-33.24l-34.69 92.17-44.57 329.95z" fill="#77485d"/><path d="M1425.03 677.53s-74.33-55-135.28-47.57-75.52 247.1-153.57 325.15c-78.05 78.05-114.6 129.29-99.23 234.92 26.53 182.29 400.53-26.15 400.53-26.15l87.3-177.17s-191.92 28.3-191.92-8.87 167.99-115.96 167.99-184.34c0-68.4-75.82-115.97-75.82-115.97z" fill="#eeae69"/><path d="M1332.86 977.83c0-37.17 167.99-115.96 167.99-184.34 0-68.38-75.82-115.96-75.82-115.96s-20.7-15.31-49.2-28.68c4.55 38.19 4.39 92.4-25.62 122.41-49.61 49.62-167.82 149.04-167.82 231.95s61.62 40.85 107.84 40.85c43.41 0 162.49-46.8 232.15-52.49l2.4-4.86c0-.01-191.92 28.29-191.92-8.88z" fill="#e88653"/><path d="M1470.69 1096.5l-33.21 67.38s-46.7 27.18-108.05 53.27c2.88-6.57 5.48-13.42 7.88-20.75 18.41-56.08 83.26-85.32 133.38-99.9z" fill="#ee8f8b"/><path class="st5" d="M1470.69 1096.5l-33.21 67.38s-46.7 27.18-108.05 53.27c2.88-6.57 5.48-13.42 7.88-20.75 18.41-56.08 83.26-85.32 133.38-99.9z"/><path d="M1339.86 726.79l48.11-92.01s65.16 61.21 53.41 82.88c-19.67 36.3-27.01 126.4-27.01 126.4s-74.51-22.55-74.51-117.27z" fill="#ed7b73"/><path class="st3" d="M1387.97 634.77l-16.55 31.65c-3.54 16.54-4.62 33.5-2.38 50.33 6.29 47.42 28.4 61.32 54.79 58.2l17.56-57.29-53.42-82.89z"/><path class="st4" d="M1523.84 521.79s21.17 1.21 39.45 28.39c18.29 27.18 9.94 106.24-30.94 142.89-36.98 33.16-108 87.76-121.72-16.66-12.76-97.09 68.16-173.54 113.21-154.62z"/><path class="st11" d="M1448.86 603.37s6.85 22.11 27.96 25.89l-27.96-25.89zm46.52 53.07s6.85 22.11 27.96 25.89l-27.96-25.89zM1474 707.11c-.01.69 2.24 4.94-2.07 6.15-2.68.75-5.17-1.66-4.54-4.37 2.54-10.61-12.26-20.81-21.81-19.21-6.01 1.01-5.33-9.16.62-7.05 6.24 2.21 24.37 12.2 27.8 24.48zm-11.15-124.48s17.38 2.68 24.52 17.99c7.15 15.31 4.26 16.04 0 16.04-4.27 0-4.55-16.7-10.54-22.69-6-6-13.98-11.34-13.98-11.34zm88.95 84.7s-2.02-17.46-17.05-25.17c-15.03-7.72-15.87-4.87-16.02-.61-.16 4.26 16.51 5.18 22.27 11.39 5.77 6.21 10.8 14.39 10.8 14.39zm-66.99-10.89c-8.19 7.47-13.09 13.26-18.19 18.88.7.63 3.73 3.81 11.62 10.22-3.05-3.55-6.21-6.98-9.51-10.27 5.67-6.01 11.11-12.21 16.08-18.83z"/><path class="st5" d="M1295.69 655.23s44.6-11.9 44.6 87.71c0 99.6 1.49 194.75 7.43 194.75 5.95 0 95.08-108.93 95.08-140.14 0-31.22-1.42-30.81-1.42-62.78 0-32.84 3.3-43.11 9.99-36.42 6.69 6.69-.67 33.75 4.67 37.34 16.46 11.06 10.74-87.78 18.48-106.42 7.74-18.63 11.46 12.59 7.74 33.4-3.72 20.81-7.71 67.53-1.82 61.64 5.89-5.89 15.91-43.51 15.91-78.96s6.72-34.6 11.18-16.07-10.14 76.95-3.72 92.86c1.6 3.98 7.22-87.68 16.35-80.28 4.61 3.74-6.44 80.81-4.72 81.57 3.37 1.49 11.7-62.73 18.85-57.79 9.95 6.87-66.59 240.89-92.92 290.63-27.87 52.68-66.89 109.27-102.58 114.47-35.68 5.2-56.49-18.58-75.82-59.46-19.31-40.88-78.78-310.71 32.72-356.05zm240.09 198.71s-3.98 107.08 10.16 147.67c14.15 40.6 62.44 32.7 69.38-28.75 6.94-61.44-16.73-207-16.73-245.52 0-33.28 11-33.47 15.46-63.21 4.46-29.73-14.1-84.65-26.72-95.99-9.08-8.17 19.44 78.27 11.26 86.45-8.18 8.17-6.22-87.18-20.34-94.61-14.13-7.43 7.39 105.87-3.75 102.39-11.15-3.49 8.87-95.6-6.75-101.55-15.61-5.95-2.56 94.26-13.1 104.8-10.54 10.54 9.35-83.08 2.67-89.77-6.69-6.69-16.97 101.46-11.98 133.82 4.97 32.38-9.56 144.27-9.56 144.27z"/><path class="st11" d="M1276.39 681.53l-60.56 93.9-16.77-8.7s21.87-112.12 102.33-150.07c59.32-27.99 81.02-133.37 160.31-142.3 79.29-8.92 88.2 7.93 88.2 7.93 21.46 21.46 27.45 63.03 13.4 67.9-25.83 8.95-49.98 19.59-77.41 23.24-13.39 1.78-34.31 1.21-43.09 13.48-6.25 8.73-20.26 56.44-22.73 73.98-2.31 16.41-3.02 86.19-4.87 100.97-5.69 45.39 1.39 43.27.39 69.62-13 2.08-58.96-12.22-58.96-12.22l-1.98-76.31-13.86 88.26-19.84-6c-3.96 32.71 1.98 89.2 1.98 89.2h-70.37c-21.09-61.49 23.72-232.2 23.83-232.88z"/><path d="M1342.16 1032.47s-28.53 4.57-23.96 14.84 23.7 18.48 31.39 10.8c7.67-7.68 9.69-25.64-7.43-25.64z" fill="#e36460"/></svg>