<svg version="1.1" id="Слой_1" xmlns="http://www.w3.org/2000/svg" x="0" y="0" viewBox="0 0 3006 1670" xml:space="preserve"><style>.st0{opacity:.4;fill:#948692}.st1{fill:#e36460}.st16{fill:#ce465f}.st19{fill:#eeae69}.st20{fill:#f18a68}.st21{fill:#e88653}.st22{fill:#f5a77d}</style><path class="st0" d="M1852.5 457.2c105.91 180.95 45.06 413.49-135.88 519.38-180.94 105.9-413.48 45.07-519.38-135.88-50.89-86.95-63.26-185.8-42.32-276.82 0 0 .02-.01.02-.04v-.04c.1-.37.5-1.84.97-4.14 2.08-10 3.1-29.99-10.11-43-16.7-16.47-25.45-14.47-28.35-25.4-4.98-18.74 26.66-26.12 34.12-.6 7.31 25 23.9 8.93 24.59 8.26l.01-.03c30.9-71.94 84.23-134.99 156.97-177.56 180.93-105.89 413.47-45.06 519.36 135.87z"/><path class="st0" d="M1248.56 388.67c0-.02.02-.04.06-.06l-.02.04c-.02.02-.04.02-.04.02zm2.98-3.14c-1.57 1.75-2.66 2.81-2.93 3.08.98-1.02 1.94-2.05 2.93-3.08zm841.25 50.03h-175.5s7.7-49.5 29.42-47.58c6 .53 10.09 6.63 12.77 13.16 1.65 4.03 7.42 3.75 8.61-.44 5.74-20.12 17.49-50.82 35.69-50.82 18.82 0 19.45 35.13 18.08 56.52-.2 3.22 3.97 4.66 5.78 1.99 4.97-7.31 12.22-14.33 21.03-12.29 7.53 1.74 10.86 9.54 12.24 17.76.41 2.47 3.83 2.79 4.71.45 4.58-12.19 12.72-29.91 21.35-30.28 13.21-.57 5.82 51.53 5.82 51.53zm-982.46 351.66h-175.5s7.7-49.5 29.42-47.58c6 .53 10.09 6.63 12.77 13.16 1.65 4.03 7.42 3.75 8.61-.44 5.74-20.12 17.49-50.83 35.69-50.83 18.82 0 19.45 35.13 18.08 56.52-.2 3.22 3.97 4.66 5.78 1.99 4.97-7.31 12.22-14.33 21.03-12.29 7.53 1.74 10.87 9.54 12.24 17.76.41 2.47 3.83 2.79 4.71.45 4.58-12.19 12.72-29.91 21.35-30.28 13.21-.56 5.82 51.54 5.82 51.54zM954.57 363.69s6.85-43.97 26.13-42.26c5.34.47 8.96 5.88 11.34 11.69 1.47 3.58 6.59 3.33 7.65-.39 5.1-17.87 15.53-45.14 31.7-45.14 16.72 0 17.27 31.2 16.06 50.2-.18 2.86 3.53 4.13 5.14 1.76 4.41-6.49 10.85-12.72 18.67-10.92 15.25 3.52 11.14 35.05 11.14 35.05H954.57zm969.94 495.25s6.85-43.97 26.13-42.26c5.33.47 8.96 5.88 11.34 11.69 1.47 3.58 6.59 3.33 7.65-.39 5.1-17.87 15.53-45.14 31.7-45.14 16.72 0 17.27 31.2 16.06 50.2-.18 2.86 3.53 4.13 5.14 1.76 4.41-6.49 10.85-12.72 18.67-10.92 15.25 3.52 11.14 35.05 11.14 35.05h-127.83zm-586.53-613.03s-56.05 17.75-46.09 40.26c9.96 22.51 32.4-20.63 65.49-21.78 33.09-1.15 27.89-35.01-19.4-18.48zm383.09 15.33c-2.26-4.09-6.64-6.54-11.31-6.78-9.25-.48-26.8 1.53-26.92 23.62-.14 27.08 49.1 2.82 38.23-16.84zm-308.12-33.58c-.94-2.03-2.94-3.35-5.16-3.62-4.39-.54-12.82-.19-13.64 10.33-.99 12.9 23.31 3.03 18.8-6.71zm412.72 741.37s48.09-33.82 31.8-52.28c-16.28-18.45-24.67 29.44-55.87 40.51-31.2 11.07-16.03 41.79 24.07 11.77zm-693.69-400.04c.08-3.22-1.67-6.2-4.36-7.97-5.33-3.5-16.46-8.41-24.22 4.67-9.51 16.05 28.2 18.77 28.58 3.3z"/><path class="st1" d="M1949.56 1670l-40.47-77.59c-19.81-34.22-38.06-55.24-50.4-56.5-29.55-3.03 20.52 91.2 20.52 91.2s-60.05-88.6-95.84-96.75c-35.79-8.15 49.95 120.18 49.95 120.18s-65.83-37.69-97.49-28.13c-16.31 4.93 11.56 27.17 42.42 47.59h171.31z"/><linearGradient id="SVGID_1_" gradientUnits="userSpaceOnUse" x1="1215.044" y1="1021.755" x2="1083.082" y2="1332.807"><stop offset="0" stop-color="#fcc104"/><stop offset="1" stop-color="#f28f1c"/></linearGradient><path d="M944.7 1587.24l17.39-2.01c61.83-88.51 115.81-176.73 147.7-245.03 41.94-89.81 57-160.88 44.75-211.22a6.224 6.224 0 00-7.51-4.57 6.216 6.216 0 00-4.57 7.51c21.35 87.77-45.57 242.1-197.76 455.32z" fill="url(#SVGID_1_)"/><linearGradient id="SVGID_2_" gradientUnits="userSpaceOnUse" x1="1094.503" y1="1471.507" x2="1105.832" y2="1641.443" gradientTransform="rotate(-6.586 -1412.067 625.356)"><stop offset="0" stop-color="#fcc104"/><stop offset="1" stop-color="#f28f1c"/></linearGradient><path d="M1140.51 1257.03s44.54 26.81 88.62-53.33c0 0-79.81-21.71-88.62 53.33z" fill="url(#SVGID_2_)"/><linearGradient id="SVGID_3_" gradientUnits="userSpaceOnUse" x1="1035.556" y1="1444.709" x2="965.964" y2="1677.761" gradientTransform="rotate(-6.586 -1412.067 625.356)"><stop offset="0" stop-color="#fcc104"/><stop offset="1" stop-color="#f28f1c"/></linearGradient><path d="M1119.92 1299.52s29.25-42.97-48.31-91.45c0 0-26.12 78.48 48.31 91.45z" fill="url(#SVGID_3_)"/><linearGradient id="SVGID_4_" gradientUnits="userSpaceOnUse" x1="1087.138" y1="1372.934" x2="1012.69" y2="1541.25" gradientTransform="rotate(-6.586 -1412.067 625.356)"><stop offset="0" stop-color="#fcc104"/><stop offset="1" stop-color="#f28f1c"/></linearGradient><path d="M1152.19 1169.24s41.9-30.76-15.06-102.33c0 .01-50.79 65.29 15.06 102.33z" fill="url(#SVGID_4_)"/><linearGradient id="SVGID_5_" gradientUnits="userSpaceOnUse" x1="1064.685" y1="1584.714" x2="987" y2="1754.651" gradientTransform="rotate(-6.586 -1412.067 625.356)"><stop offset="0" stop-color="#fcc104"/><stop offset="1" stop-color="#f28f1c"/></linearGradient><path d="M1081.13 1386.29s32.84 40.3 101.43-20.21c.01 0-67.76-47.43-101.43 20.21z" fill="url(#SVGID_5_)"/><linearGradient id="SVGID_6_" gradientUnits="userSpaceOnUse" x1="969.379" y1="1587.489" x2="878.748" y2="1767.133" gradientTransform="rotate(-6.586 -1412.067 625.356)"><stop offset="0" stop-color="#fcc104"/><stop offset="1" stop-color="#f28f1c"/></linearGradient><path d="M1053.6 1426.4s36.24-37.27-31.77-98.43c0 .01-39.3 72.79 31.77 98.43z" fill="url(#SVGID_6_)"/><linearGradient id="SVGID_7_" gradientUnits="userSpaceOnUse" x1="1000.375" y1="1656.911" x2="927.546" y2="1826.845" gradientTransform="rotate(-6.586 -1412.067 625.356)"><stop offset="0" stop-color="#fcc104"/><stop offset="1" stop-color="#f28f1c"/></linearGradient><path d="M1021.37 1485.07s32.07 40.91 101.8-18.28c0 0-66.86-48.71-101.8 18.28z" fill="url(#SVGID_7_)"/><linearGradient id="SVGID_8_" gradientUnits="userSpaceOnUse" x1="-3438.236" y1="614.157" x2="-3558.005" y2="896.468" gradientTransform="scale(-1 1) rotate(-3.779 137.199 -21386.083)"><stop offset="0" stop-color="#fcc104"/><stop offset="1" stop-color="#f28f1c"/></linearGradient><path d="M2147.44 1253.36c-91.8-162.23-127.77-279.65-106.4-347.58.94-2.97-.72-6.14-3.69-7.08-2.97-.93-6.14.72-7.08 3.69-14.11 44.86-4.73 110.12 27.88 193.96 19.54 50.24 50.76 112.51 87.93 177.69l1.36-20.68z" fill="url(#SVGID_8_)"/><linearGradient id="SVGID_9_" gradientUnits="userSpaceOnUse" x1="-3476.888" y1="517.4" x2="-3466.606" y2="671.634" gradientTransform="scale(-1 1) rotate(-10.381 -385.978 -7350.364)"><stop offset="0" stop-color="#fcc104"/><stop offset="1" stop-color="#f28f1c"/></linearGradient><path d="M2035.31 1019.19s-41.94 21.62-77.06-53.6c0 0 73.58-14.88 77.06 53.6z" fill="url(#SVGID_9_)"/><linearGradient id="SVGID_10_" gradientUnits="userSpaceOnUse" x1="-3530.389" y1="493.079" x2="-3593.55" y2="704.596" gradientTransform="scale(-1 1) rotate(-10.381 -385.978 -7350.364)"><stop offset="0" stop-color="#fcc104"/><stop offset="1" stop-color="#f28f1c"/></linearGradient><path d="M2051.41 1058.91s-23.92-40.67 49.23-79.93c0 0 18.96 72.64-49.23 79.93z" fill="url(#SVGID_10_)"/><linearGradient id="SVGID_11_" gradientUnits="userSpaceOnUse" x1="-3483.573" y1="427.936" x2="-3551.141" y2="580.699" gradientTransform="scale(-1 1) rotate(-10.381 -385.978 -7350.364)"><stop offset="0" stop-color="#fcc104"/><stop offset="1" stop-color="#f28f1c"/></linearGradient><path d="M2029.98 938.99s-36.11-30.37 19.77-91.77c0 0 42.09 62.17-19.77 91.77z" fill="url(#SVGID_11_)"/><linearGradient id="SVGID_12_" gradientUnits="userSpaceOnUse" x1="-3503.95" y1="620.148" x2="-3574.457" y2="774.382" gradientTransform="scale(-1 1) rotate(-10.381 -385.978 -7350.364)"><stop offset="0" stop-color="#fcc104"/><stop offset="1" stop-color="#f28f1c"/></linearGradient><path d="M2081.35 1139.81s-32.15 34.53-90.65-24.37c-.01-.01 64.2-38.9 90.65 24.37z" fill="url(#SVGID_12_)"/><linearGradient id="SVGID_13_" gradientUnits="userSpaceOnUse" x1="-3590.45" y1="622.666" x2="-3672.708" y2="785.711" gradientTransform="scale(-1 1) rotate(-10.381 -385.978 -7350.364)"><stop offset="0" stop-color="#fcc104"/><stop offset="1" stop-color="#f28f1c"/></linearGradient><path d="M2103.88 1177.78s-30.59-35.92 34.67-87.24c-.01.01 31.22 68.27-34.67 87.24z" fill="url(#SVGID_13_)"/><linearGradient id="SVGID_14_" gradientUnits="userSpaceOnUse" x1="-3562.318" y1="685.672" x2="-3628.419" y2="839.906" gradientTransform="scale(-1 1) rotate(-10.381 -385.978 -7350.364)"><stop offset="0" stop-color="#fcc104"/><stop offset="1" stop-color="#f28f1c"/></linearGradient><path d="M2129.56 1232.84s-31.49 35.13-91.1-22.65c0 0 63.46-40.1 91.1 22.65z" fill="url(#SVGID_14_)"/><path class="st1" d="M1087.7 1669.99H951.54c44.89-48.2 135.98-170.69 160.05-167.21 30.67 4.43-28.3 84.87-28.3 84.87s72.88-81.76 111.16-80.93c38.28.83-81.04 108.94-81.04 108.94s76.18-21.44 105.79-3.73c23.29 13.94-91.49 46.45-131.5 58.06z"/><path class="st16" d="M968.67 1669.8c29.74-20.74 53.58-48.39 42.55-80.57-24.69-72.01-82.65-11.16-110.51-18.28-27.86-7.1 30.03-68.71 72.77-130.61 42.74-61.9 14.04-101.75-14.66-93.34-28.72 8.43-36.31-30.13-10.73-68.04 27.11-40.17 62.08-135.5 7.51-141.71-62.35-7.1-69.8 121.61-118.12 130.55-48.32 8.94-15.73-49.29-53.21-45.88-37.49 3.41-60.51 90.93-32.56 157.17 27.95 66.25-2.3 132.44-19.75 115.16s-20.44-86.72-53.59-90.34c-50.12-5.47-70.2 171.76-33.98 265.89h324.28z"/><path class="st16" d="M748.43 1669.8c65.7-174.39 176.14-441.56 177.48-444.81a4.03 4.03 0 00-2.17-5.26c-2.06-.85-4.4.13-5.25 2.19-1.35 3.27-113 273.36-178.65 447.88h8.59z"/><path class="st16" d="M846.35 1414.38a4.02 4.02 0 002.96-6.27c-.35-.51-34.72-51.2-44.92-87.77a4.024 4.024 0 10-7.75 2.17c10.56 37.84 44.58 88.02 46.02 90.14a4 4 0 003.69 1.73zm-14.79 42.91l.24-.03c2.46-.37 60.75-9.37 100.26-31a4.029 4.029 0 001.6-5.46 4.029 4.029 0 00-5.46-1.6c-38.24 20.93-97 30.01-97.59 30.1-2.2.33-3.71 2.38-3.37 4.58.3 2.12 2.22 3.6 4.32 3.41zm-68.23 167.04c1-.09 1.98-.56 2.69-1.39a4.022 4.022 0 00-.43-5.67c-.52-.45-52.49-45.37-62.72-82.19-.59-2.14-2.82-3.39-4.95-2.8-2.14.59-3.4 2.81-2.8 4.95 10.88 39.18 63.02 84.25 65.23 86.15.85.74 1.93 1.05 2.98.95zm50.14 34.64c22.91-2.09 48.14-6.48 68.89-15.31 2.04-.87 3-3.23 2.13-5.28a4.03 4.03 0 00-5.28-2.13c-49.52 21.07-128.78 15.74-129.58 15.69a4.028 4.028 0 00-4.3 3.73 4.022 4.022 0 003.73 4.3c1.98.14 30.69 2.07 64.41-1zm1425.81-89.85c6.58-44.55-4.62-105.27-30.24-112.32-8.78-2.41-15.6.48-15.6.48-7.79 3.25-8.44 9.58-19.2 20.64-5.45 5.6-12.69 13.05-17.04 11.28-4.43-1.8-4.22-12.52-3.6-19.92 3.08-36.76 23.17-74.74 30.17-96.72 21.06-66.12-25.18-147.91-54.08-150.64-8.17-.77-13.57 2.81-13.57 2.81-15.33 11.26.65 50.52-39.65 43.07-48.32-8.94-55.76-137.65-118.12-130.55-54.57 6.21-19.6 101.54 7.51 141.71 25.58 37.92 17.99 76.47-10.73 68.04-28.71-8.42-57.41 31.44-14.66 93.34 42.74 61.9 100.63 123.5 72.77 130.61-27.86 7.12-85.82-53.73-110.51 18.28-11.04 32.18 12.81 59.83 42.55 80.57h238.49c16.73-15.62 48.01-49.87 55.51-100.68z"/><path class="st16" d="M2165.54 1669.8c-65.7-174.39-176.14-441.56-177.48-444.81a4.03 4.03 0 012.17-5.26 4.01 4.01 0 015.25 2.19c1.35 3.27 113 273.36 178.65 447.88h-8.59z"/><path class="st16" d="M2067.61 1414.38a4.02 4.02 0 01-2.96-6.27c.35-.51 34.72-51.2 44.92-87.77a4.024 4.024 0 117.75 2.17c-10.56 37.84-44.58 88.02-46.02 90.14a4 4 0 01-3.69 1.73zm14.79 42.91l-.24-.03c-2.46-.37-60.75-9.37-100.26-31a4.029 4.029 0 01-1.6-5.46 4.029 4.029 0 015.46-1.6c38.24 20.93 97 30.01 97.59 30.1 2.2.33 3.71 2.38 3.37 4.58-.3 2.12-2.22 3.6-4.32 3.41zm101.38 123.68c-16.95 20.36-35.09 36.04-35.4 36.31a4.014 4.014 0 00-.43 5.67c.71.83 1.68 1.3 2.69 1.39a4.03 4.03 0 002.98-.95c1.13-.97 15.19-13.13 30.16-29.99v-12.43zm-83.29 78c-22.91-2.09-48.14-6.48-68.89-15.31a4.03 4.03 0 01-2.13-5.28c.87-2.04 3.23-3 5.28-2.13 49.52 21.07 128.78 15.74 129.58 15.69a4.028 4.028 0 014.3 3.73 4.022 4.022 0 01-3.73 4.3c-1.98.14-30.69 2.07-64.41-1z"/><linearGradient id="SVGID_15_" gradientUnits="userSpaceOnUse" x1="1561.065" y1="1378.898" x2="1581.89" y2="696.302"><stop offset="0" stop-color="#b7a8d0"/><stop offset="1" stop-color="#f7fcfd"/></linearGradient><path d="M1486.37 1440.32s-99.94-3.94-134.32 11.85c-54.59 25.07-61.13 61.69 7.19 64.19 65.1 2.39 111.8 1.56 267.08 1.61 154.33.05 190.73 3.87 176.59-44.42-6.27-21.43-79.69-37.03-176.59-36.41-63.81.42-139.95 3.18-139.95 3.18z" opacity=".4" fill="url(#SVGID_15_)"/><path class="st16" d="M1542.15 185.39c-50.22-26.87-112.27 2.66-124.55 58.28-.66 2.99-1.29 6.09-1.88 9.31-15.25 83.26 28.12 92.69-2.52 113.9-32.84 22.73-51.38 31.21-51.38 68.91 0 51.81 58.34 87.4 39.52 125.11-18.82 37.7-55.77 83.26-39.79 104.21 35.42 46.42 61.98-12.57 117.18 19.9 44.05 25.91 98.65 41.07 115.06-11.53 18.71-59.95 48.61-3.85 82.04-37.07 43.34-43.07-27.46-93.23-30.44-134.24-2.98-41.02 27.7-68.32 8.17-105.43-15.71-29.85-51.72-26.71-54.01-69.12-2.29-42.42 1.04-88.12-11.24-115.97-3.07-6.99-37.11-21.42-46.16-26.26z"/><path d="M1624.26 752.31l.36 1.64-201.57 8.73c10.72-45.98 23.6-94.14 26.76-126.28.18-1.79.33-3.5.44-5.18a1453.395 1453.395 0 01-25.43-111.21c-11.85-62.94-15.08-103.47-15.08-103.47 3.63-2.87 8.95-5.62 15.17-8.21 6.85-2.83 14.82-5.46 22.85-7.79v-.02c11.43-3.32 22.98-6.04 31.76-7.96 8.94-1.95 14.97-3.05 14.97-3.05 44.91 9.42 55.53 2.12 55.53 2.12l10.52 2.88 22.91 8.05h.02l33.5 11.77 11.53 4.06-6.95 112.64v.02l-22.89 105.66v.02l-.35 1.61 25.95 113.97z" fill="#77485d"/><path class="st19" d="M1583.46 402.55c-7.25 21.69-23.68 53.72-58.23 58.87-42.81 6.39-68.96-41.99-77.45-60.9-.02-.02 0-.02 0-.02 11.43-3.32 22.98-6.04 31.76-7.96 8.94-1.95 14.97-3.05 14.97-3.05 44.91 9.42 55.53 2.12 55.53 2.12l10.52 2.88 22.9 8.06zm41.16 351.4l-201.57 8.73c7.99-34.3 17.2-69.82 22.65-98.99 1.88-9.93 3.3-19.13 4.11-27.29 18.38 8.07 46.02 14.14 80.8 12.79 31.76-1.24 54.3-5.71 68.05-12.48v.02l.89 4.03 24.7 111.55.37 1.64z"/><path class="st20" d="M1527.61 702.69c0 4.54-1.9 8.21-4.24 8.21-2.34 0-4.24-3.68-4.24-8.21 0-4.54 1.9-8.21 4.24-8.21 2.34 0 4.24 3.67 4.24 8.21z"/><path class="st21" d="M1599.56 640.75c-23.17 14.13-79.44 40.73-153.85 22.93 1.88-9.93 3.3-19.13 4.11-27.29 18.38 8.07 46.02 14.14 80.8 12.79 31.76-1.24 54.3-5.71 68.05-12.48v.02l.89 4.03z"/><path class="st22" d="M1424.83 520c-11.85-62.94-15.08-103.47-15.08-103.47 3.63-2.87 8.95-5.62 15.17-8.21 5.51 18.89 20.41 78.59-.09 111.68zm203.68-101.62l-6.95 112.64c-26.25-23.18-12.6-87.38-4.58-116.7l11.53 4.06z"/><path class="st19" d="M1486.94 401.3c22.5 7.77 43.64 5.04 63.45-8.16-4.7-19.06-4.06-34.3-1.47-48.13-5.56-4.97-16.85-14.12-29.81-19.4-5.58-1.49-11.47-2.9-17.3-4.03-9.65-.35-19.28 2.97-27.42 12.82 3.23 8.11 5.95 15.86 8.03 24.6 2.73 11.44 4.35 24.55 4.52 42.3z"/><path class="st21" d="M1474.39 334.39c3.23 8.11 5.95 15.86 8.03 24.6 12.08 15.05 33.83 33.62 67.97 34.16-4.7-19.06-4.06-34.3-1.47-48.13-5.56-4.97-16.85-14.12-29.81-19.4-5.58-1.49-11.47-2.9-17.3-4.03-9.65-.37-19.28 2.95-27.42 12.8z"/><path class="st16" d="M1541.23 295.39c34.06 0 59.75-31.45 52.37-64.7-3.87-17.43-9.76-32.87-16.32-44.46-16.97-29.97-68.79-43.69-111.45-21.84-.91.47-1.83.93-2.76 1.34-6.64 2.94-42.52 20.69-44.97 62.52-.09 1.57-.22 3.13-.45 4.68-.08.52-.17 1.13-.26 1.83-4.33 32.09 20.69 60.62 53.07 60.62h70.77z"/><path class="st19" d="M1578.19 255.93s13-15.48 23.11-4.44c10.11 11.03 5.93 56.76-21.18 55.98-.01 0-6.93-25.62-1.93-51.54z"/><path class="st22" d="M1445.04 241.69l.01.19.06-.21c-.05.01-.07.02-.07.02z"/><path class="st19" d="M1593.65 278.47c-1.15 32.37-8.92 73.64-39.46 85.94-38.66 15.58-70.67-7.83-89.83-45.38-.94-1.86-1.87-3.76-2.75-5.68l-.71-1.57c-.87-1.92-1.7-3.89-2.5-5.88-6-14.95-10.15-31.44-12.13-48.24-.62-5.25-1.04-10.53-1.22-15.79 0 0-.36-9.66-.33-9.81 2.31-17.73 17.21-43.82 71.89-47.62 29.09-2.02 47.83 9.71 59.18 21.64.29.27.54.55.79.83 3.71 4.01 6.6 8.01 8.76 11.47 3.22 5.15 5.39 10.88 6.46 16.86.18 1.01.27 1.73.17 1.77.38 2.94 2.45 20.29 1.68 41.46z"/><linearGradient id="SVGID_16_" gradientUnits="userSpaceOnUse" x1="1611.314" y1="757.959" x2="1583.036" y2="192.407"><stop offset="0" stop-color="#223"/><stop offset="1" stop-color="#5c3268"/></linearGradient><path d="M1593.65 278.47c-5.78-8.52-2.44-25.6-10.63-41.66-5.93-11.64-6.49-24.71-6.44-29.9 3.71 4.01 6.6 8.01 8.76 11.47 3.22 5.15 5.39 10.88 6.46 16.86.18 1.01.27 1.73.17 1.77.38 2.94 2.45 20.29 1.68 41.46z" fill="url(#SVGID_16_)"/><path class="st19" d="M1459.06 259.01s-20.26-6.89-26.27 6.82c-6.01 13.7 12.68 55.64 38.09 46.17 0 0 1.27-30.07-11.82-52.99z"/><path class="st16" d="M1489.87 284.85c7.11-2.54 15.92-7.12 25.69-14.26 0 0 44.19-37.86 60.23-64.51-11.35-11.91-30.1-23.66-59.18-21.62-54.69 3.79-69.59 29.88-71.9 47.61-.02.15.33 9.8.33 9.8.18 5.26.43 9.24 1.04 14.5.06.5.14.98.14.98s12.55-1.19 16.74 9.66c1.83 4.72 3.74 8.09 5.06 15.32.01-.01 10.5 7.66 21.85 2.52z"/><path class="st20" d="M1461.6 313.35c.89 1.92 1.81 3.82 2.76 5.68 3.73-.38 8.65-2.41 11.45-9.7 0 .01-8.12 5.32-14.21 4.02z"/><path class="st19" d="M1409.75 416.53s-78.76 78.03-109.23 139.46c-7.62 15.36-1.82 33.94 13.08 42.43 35.09 19.99 105.01 52.48 187.48 51.47l4.45-24.76s-25.65-10.34-62.78-27.87c-43.03-20.31-78.69-30.73-78.69-30.73 17.5-12.59 47.31-46.03 63.81-63.24 0-.01 4.58-68.47-18.12-86.76z"/><path class="st19" d="M1494.12 624.3s9.85-73.01 20.36-78.33c10.51-5.32 15.59 99.81 8.34 104.12-7.25 4.3-25.37 0-25.37 0l-3.33-25.79z"/><path class="st19" d="M1628.51 418.38s71.8 75.81 102.21 137.11c7.6 15.32 1.82 33.86-13.05 42.33-35.02 19.95-104.77 52.36-187.06 51.36l-4.44-24.7s32.49-6.37 68.67-25.58c46.14-24.51 72.48-32.89 72.48-32.89-16.52-25.82-35-54.44-51.46-71.62 0-.01 1.01-62.48 12.65-76.01z"/><path class="st19" d="M1537.55 623.64s-9.83-72.84-20.32-78.15c-10.49-5.31-15.55 99.59-8.32 103.88 7.23 4.29 25.32 0 25.32 0l3.32-25.73z"/><path class="st22" d="M1619.91 1387.28l-2.77 42.37-26.9 2.34-5.32-44.41c0 .01 21.29-8.36 34.99-.3z"/><linearGradient id="SVGID_17_" gradientUnits="userSpaceOnUse" x1="1654.176" y1="1449.127" x2="1649.986" y2="1565.379"><stop offset="0" stop-color="#fcc104"/><stop offset="1" stop-color="#f28f1c"/></linearGradient><path d="M1586.72 1483.57c.41 2.91.79 5.8 1.1 8.67h135.4c0-2.96-.4-5.88-1.15-8.67a33.306 33.306 0 00-15.28-20.02c-20.7-12.15-51.24-17.81-51.24-17.81-8.79-8.26-34.96-22.1-34.96-22.1-21.7 8.79-33.91 4.8-33.91 4.8-5.66 19.21-2.38 37.57.04 55.13z" fill="url(#SVGID_17_)"/><linearGradient id="SVGID_18_" gradientUnits="userSpaceOnUse" x1="1652.865" y1="1388.754" x2="1654.96" y2="1487.205"><stop offset="0" stop-color="#fcc104"/><stop offset="1" stop-color="#f28f1c"/></linearGradient><path d="M1586.72 1483.57c.41 2.91.79 5.8 1.1 8.67h135.4c0-2.96-.4-5.88-1.15-8.67h-135.35z" fill="url(#SVGID_18_)"/><path class="st1" d="M1642.85 834.02l.44 165.75-.97 50.53-1.57 81.43-17.04 263.04c-9.75 7.87-27.93 7.23-43.96 2.13l-15.2-144.78c-8.59-37.52-9.41-120.36-3.92-163.6.06-.46.11-.91.17-1.36l-4.68-59.64-13.74-175.27 100.47-18.23z"/><path class="st1" d="M1408.52 858.12s-7.14-47.68 18-110.11c0 0 114.03 24.95 195.09-7.33 0 0 21.15 58.31 21.25 93.33-.01.01-75.28 49.65-234.34 24.11z"/><path class="st22" d="M1474.86 1095.06l42.23 4.5 6.89-26.11-42.85-12.82s-11.87 19.55-6.27 34.43z"/><linearGradient id="SVGID_19_" gradientUnits="userSpaceOnUse" x1="1487.818" y1="1130.526" x2="1652.245" y2="1160.898"><stop offset="0" stop-color="#fcc104"/><stop offset="1" stop-color="#f28f1c"/></linearGradient><path d="M1575.39 1078.78c2.8.9 5.58 1.76 8.35 2.56l-23.1 133.42a33.74 33.74 0 01-8.34-2.61 33.297 33.297 0 01-17.12-18.47c-8.44-22.46-8.8-53.53-8.8-53.53-6.64-10.07-15.81-38.22-15.81-38.22 12.36-19.88 10.51-32.59 10.51-32.59 19.9-2.3 37.43 4.06 54.31 9.44z" fill="url(#SVGID_19_)"/><linearGradient id="SVGID_20_" gradientUnits="userSpaceOnUse" x1="1605.571" y1="1143.88" x2="1578.341" y2="1145.974"><stop offset="0" stop-color="#fcc104"/><stop offset="1" stop-color="#f28f1c"/></linearGradient><path d="M1575.39 1078.78c2.8.9 5.58 1.76 8.35 2.56l-23.1 133.42a33.74 33.74 0 01-8.34-2.61l23.09-133.37z" fill="url(#SVGID_20_)"/><path class="st1" d="M1426.52 748.02s-116 144.52-135.17 225.75c0 0 103.07 113.01 200.49 125.79 7.63-9.3 10.78-17.9 12.32-32.03 0 0-43.31-20.92-66.47-53.59-28.14-39.7-59.63-54.76-59.63-54.76s98.57-61.15 112.26-107.7c13.69-46.56-63.8-103.46-63.8-103.46z"/><linearGradient id="SVGID_21_" gradientUnits="userSpaceOnUse" x1="1422.222" y1="589.575" x2="1300.21" y2="406.296"><stop offset="0" stop-color="#ef775c"/><stop offset="1" stop-color="#d73334"/></linearGradient><path d="M1359.15 468.58s43.47 40.44 50.59 62.45c0 0-15.87 17.77-26.05 22.79 0 0-33.07-46.08-49.82-54.2 0 0 13.83-24.19 25.28-31.04z" fill="url(#SVGID_21_)"/><linearGradient id="SVGID_22_" gradientUnits="userSpaceOnUse" x1="1334.989" y1="473.926" x2="1371.462" y2="517.774"><stop offset="0" stop-color="#ef775c"/><stop offset="1" stop-color="#d73334"/></linearGradient><path d="M1330.19 522.01l-15.32-14.25c-.42-.4-.45-1.06-.05-1.49l47.7-51.28c.4-.42 1.06-.45 1.49-.05l15.32 14.25c.42.4.45 1.06.05 1.49l-47.7 51.28c-.4.43-1.07.45-1.49.05z" fill="url(#SVGID_22_)"/><linearGradient id="SVGID_23_" gradientUnits="userSpaceOnUse" x1="1316.97" y1="454.858" x2="1368.812" y2="511.02"><stop offset="0" stop-color="#ef775c"/><stop offset="1" stop-color="#d73334"/></linearGradient><path d="M1335.31 484.25s0-6.43 7.92-8.52c0 0 9.39 5.82 15.68 16.94 0 0-1.47 6.93-7.36 7.92 0 0-5.11-8.63-16.24-16.34z" fill="url(#SVGID_23_)"/><path d="M2183.75.35l.03 1669.62-1644.45.03c473.28-516.32 243.22-842.85 357.84-1275.84C942.83 221.73 1084.2 73.28 1228.22 0l955.53.35z" fill="none"/></svg>