<svg version="1.1" id="Слой_1" xmlns="http://www.w3.org/2000/svg" x="0" y="0" viewBox="0 0 3006 1670" xml:space="preserve"><style>.st0{opacity:.4;fill:#eeae69}.st2{fill:#77485d}.st3{opacity:.5}.st4,.st5{fill:#eeae69}.st5{opacity:.5}.st6{fill:#fff}.st7{fill:#aa3a7a}.st8{fill:#78263a}.st12{fill:#e88686}.st13{fill:#ce465f}.st17{fill:#efae6a}.st18{fill:#e88653}.st19{fill:#f9ecdb}</style><path class="st0" d="M1988.7 239.94v-15.31h-13.61c-1.39-7.65-4.36-13.12-8.48-18.69l10.37-10.56-9.88-10.19-11.08 11.25c-5.32-3.8-11.2-6.34-18.51-7.43v-17.96h-14.63v17.96c-3.66 1.09-12.05 3.7-17.38 7.5l-10.3-11.17-9.7 10.34 10.45 10.27c-4.12 5.56-7 11.03-8.39 18.69h-12.23v15.31h11.62c.83 7.65 3.45 15.13 7.42 21.25l-8.69 9.23 9.88 10.41 7.67-8.76c5.82 4.73 12.33 8.02 19.64 9.28v12.18h14.63v-12.18c7.31-1.25 14.96-4.51 20.78-9.25l8.6 8.79 9.98-10.35-8.65-9.35c3.97-6.12 6.65-13.6 7.48-21.25h13.01zm-57.37 26.71c-16.61 0-30.08-14.09-30.08-31.47 0-17.39 13.47-31.48 30.08-31.48s30.07 14.09 30.07 31.48c.01 17.38-13.46 31.47-30.07 31.47z" transform="matrix(.24 0 0 .24 389.28 1340.88)"/><path class="st0" d="M1953.66 234.52c0 12.68-9.82 22.96-21.94 22.96-12.12 0-21.94-10.28-21.94-22.96 0-12.68 9.82-22.96 21.94-22.96 12.12 0 21.94 10.28 21.94 22.96z" transform="matrix(.24 0 0 .24 389.28 1340.88)"/><path d="M2679.46 1496.71H426.52c-48.93-24.61-133.26-77.32-183.89-176.5 0 0-90.92-178.06 3.12-400.76 8.88-21.03 14.47-33.84 14.47-33.84 18.04-41.33 18.88-40.19 20.89-47.99 9.42-36.59-6.79-70.52-11.34-80.04-10.65-22.29-23.37-32.91-33.46-44.25-43.44-48.81-54.38-128.98-41.01-188.76 11.2-50.07 39.31-85.12 59.27-110.02 15.21-18.97 32.96-35.65 32.96-35.65 7.27-6.84 13.83-12.43 16.56-14.6 27.85-22.22 72.33-20.97 83.88-20.52 73.9 2.86 110.61 13.64 163.28 17.04 29.75 1.92 81.38 4.84 141.69-11.48 68.36-18.49 115.79-53.03 137.48-69.12 65.75-48.78 74.84-83.18 139.89-116.14 30.38-15.39 57.69-22.73 75.28-26.47 38.18-5.15 93.11-6.23 152.98 14.88 24.09 8.49 133.97 47.23 169.27 145.59 13.53 37.68 13.19 76.01 12.98 103.33-.26 33.72-4.82 58.37-13.52 99.77-34.03 162.02-47.85 182.57-33.45 221.61 18.27 49.53 61.12 72.33 67.96 75.83 46.3 23.74 93.41 12.67 126.74 4.32 56.29-14.1 80.84-35.94 156.81-84.24 104.32-66.32 157.56-99.61 210.17-105.91 26.64-3.19 96.12-7.18 164 34.7 7.51 4.63 83.44 52.79 105.46 130.75 1.75 6.18 1.67 7.32 20.67 86.37 7.48 31.11 11.21 46.67 12.24 50.74 11.5 45.65 59.01 151.32 168.4 212.31 72.02 40.15 138.41 42.86 155.38 43.2 7.4.15 79.12.94 145.36-30.24 30.91-14.55 46.36-21.82 55.85-29.52 0 0 32.3-26.2 54.96-33.12 1.37-.42 4.74-1.21 8.41-1.74 0 0 5.19-.75 8.57-.13.02 0 1.34.25 1.34.25 2.26.45 5.06 1.02 7.89 2.49 1.86.96 3.1 1.99 3.85 2.62 3.2 2.67 4.88 5.52 5.98 7.44 1.02 1.77 2.85 5.32 3.81 9.97 1.83 8.95-.72 16.52-2.05 19.79-.47 6.52-.9 16.28-.29 28.07 1.31 25.62 6.69 45.79 11.65 63.98 7.35 26.95 10.39 28.91 12.55 45.37.51 3.92 2.35 19.2-.26 41.44-6.66 56.73-35.51 101.2-39.47 107.17-9.65 14.55-29.84 44.32-67.89 68.26-20.23 12.73-39.04 19.75-52.48 23.75z" fill="#92436b"/><path class="st2" d="M230.73 934.4c37.34-135.14 192.44-211.6 320.98-247.2 83.5-23.12 170.59-36.97 256.18-25.29s169.98 50.92 226.29 120.24c49.62 61.08 74.77 141.16 124.59 202.06 69.84 85.39 181.46 122.66 288.06 120.44 106.6-2.22 209.7-39.46 308.31-82.42 56.98-24.82 115.52-52.2 177.1-50.26 72.81 2.3 138.99 45.54 194.14 95.98 55.15 50.44 103.47 109.5 163.04 153.93 162.95 121.55 382.95 103.47 532.11-36.56 2.89 7.37 6.77 17.84 10.73 30.61 6 19.33 10.37 38.01 11.91 47.3 6.87 41.27-11.25 81.43-22.64 106.68-9.18 20.34-23.6 51.49-54.66 80.16-33.56 30.97-68.91 42.77-84.34 47.74-97.67 31.46-244.19 8.99-372.57 0-206.21-14.44-357.03 7.57-388.15 12.18-70.93 10.52-131.17 24.67-131.18 24.67-80.07 19.17-117.33 37.64-285.11 67.84 0 0-704.11 126.72-1128.59-83.26-24.12-11.93-75.07-37.83-116.83-92.42-48.55-63.47-58.1-130.98-65.1-185.11-16.15-124.85 9.15-232.98 35.73-307.31z"/><g class="st3"><path class="st4" d="M2370.44 895.72h-28.99s3.41-7.75 3.07-17.02c-.14-3.73-1.6-6.31-3.3-8.05-1.9-1.95-5.06-.63-5.28 2.15-.2 2.59-.88 5.89-2.67 9.47-4.09 8.2-11.92 13.45-11.92 13.45v38.49s33.2.89 37.75-1.12c4.55-2.01 4.31-8.55 3.11-10.8 7.18-3.51 4.79-8.52 4.79-13.54 8.39-3.26 3.44-13.03 3.44-13.03zm-67.19 0h13.89v38.49h-13.89z"/></g><path class="st5" d="M2079.1 271.38l-41.45-94.01 36.32-16.54-3.98-48.94-18.87-.01 22-40.57 32.55 36.07-18.5 4.22 10.13 63.66-36.97 13.4z"/><path class="st6" d="M1006.89 1347.65c0-10.31 7.38-18.85 16.91-20.13 5.1-3.24 162.83-132.58 162.83-132.58s-137.69 150.3-141.17 155.6c-1.34 9.82-9.43 17.39-19.18 17.39-10.69.01-19.39-9.09-19.39-20.28z"/><path class="st4" d="M1661.02 836.9c0-11.12 7.96-20.33 18.23-21.7 5.5-3.49 24.16-17.82 39.71-30.21l54.4-40.33-40.14 56.15c-12.44 15.19-26.87 33.49-30.61 39.21-1.45 10.58-10.17 18.75-20.69 18.75-11.53 0-20.9-9.81-20.9-21.87z"/><path class="st6" d="M2051.67 882.42c0-6.88 4.93-12.58 11.29-13.43 3.41-2.16 14.96-11.03 24.58-18.7l33.68-24.97-24.85 34.76c-7.7 9.4-16.63 20.73-18.95 24.27-.9 6.55-6.3 11.61-12.81 11.61-7.13 0-12.94-6.08-12.94-13.54z"/><path class="st5" d="M2287.34 798.63l87.13-162.72 61.46 37.92 63.97-57.84-19.95-28.79 79.8-9.37-15.82 87.84-25.46-23.76-77.96 82.8-57.79-42.24zm275.74-361.62v-12.49h-11.79a40.706 40.706 0 00-7.25-16.47l8.86-9.27-8.44-8.84-9.12 9.55c-4.55-3.24-9.81-5.48-15.47-6.41v-13.79h-11.94v13.79c-5.67.93-10.91 3.17-15.47 6.41l-9.11-9.55-8.44 8.84 8.85 9.27a40.555 40.555 0 00-7.24 16.47h-11.79v12.49h11.26c.71 6.6 2.95 12.72 6.34 17.95l-7.43 7.78 8.44 8.84 7.18-7.51c4.97 4.04 10.91 6.83 17.4 7.9v10.27h11.94v-10.27c6.5-1.07 12.44-3.86 17.41-7.9l7.18 7.51 8.44-8.84-7.44-7.78c3.4-5.23 5.64-11.35 6.34-17.95h11.29zm-289.01 410.84v-5.24h-4.94a16.97 16.97 0 00-3.04-6.9l3.72-3.89-3.54-3.7-3.83 4a15.621 15.621 0 00-6.49-2.69v-5.78h-5.01v5.78a15.49 15.49 0 00-6.49 2.69l-3.82-4-3.54 3.7 3.72 3.89a17.03 17.03 0 00-3.04 6.9h-4.94v5.24h4.72c.3 2.76 1.24 5.33 2.66 7.52l-3.12 3.26 3.54 3.71 3.01-3.15c2.08 1.7 4.58 2.87 7.3 3.31v4.31h5.01v-4.31c2.73-.45 5.22-1.62 7.3-3.31l3.01 3.15 3.54-3.71-3.12-3.26c1.43-2.19 2.37-4.76 2.66-7.52h4.73zM1887.4 508.91v-6.74h-6.35c-.65-3.3-2.01-6.32-3.91-8.88l4.78-5-4.55-4.77-4.92 5.14a20.004 20.004 0 00-8.35-3.46v-7.44h-6.44v7.44c-3.06.5-5.89 1.71-8.35 3.46l-4.92-5.14-4.55 4.77 4.78 5a21.89 21.89 0 00-3.91 8.88h-6.36v6.74h6.07c.39 3.56 1.59 6.86 3.43 9.68l-4.01 4.2 4.55 4.77 3.87-4.05c2.68 2.18 5.89 3.69 9.39 4.26v5.54h6.44v-5.54c3.51-.57 6.72-2.08 9.39-4.26l3.87 4.05 4.55-4.77-4.02-4.2a22.08 22.08 0 003.43-9.68h6.09zm-28.18-163.43h-71.24c-2.81 0-8.47 7.51-8.47 9.72l-.18 46.09c0 2.21 5.84 6.99 8.65 6.99h24.91s1.61 11.96-9.11 11.96c0 0 12.59 3.69 17.68 1.31 3.62-1.69 7.29-4.3 8.3-13.27h29.46c2.81 0 1.17-4.03 1.17-6.24v-47.39c.01-2.22 1.65-9.17-1.17-9.17zm-11.68 44.85h-55.71v-4.48h55.71v4.48zm0-13.46h-55.71v-4.48h55.71v4.48zm0-13.45h-55.71v-4.48h55.71v4.48z"/><path class="st0" d="M1943.76 456.14l-21.42.57-2.05-85.19 21.42-.57zm-34.27.9l-17.14.46-.97-40.36 17.13-.45zm64.26-1.69l-21.43.57-1.29-53.81 21.42-.56z"/><g class="st3"><path class="st4" d="M2410.77 497.53c2.71-3.78 6.14-6 10.29-6.69 4.14-.68 8.3.62 12.47 3.9 4.23 3.32 6.6 7.15 7.12 11.48.52 4.33-.58 8.4-3.32 12.2l-2.43 3.38c-2.72 3.78-6.13 5.99-10.24 6.66-4.11.66-8.25-.65-12.42-3.93-4.2-3.3-6.58-7.12-7.14-11.46-.57-4.34.51-8.39 3.22-12.17l2.45-3.37zm5.71 9.79c-1.22 1.7-1.8 3.48-1.73 5.34.06 1.86.93 3.45 2.62 4.77 1.62 1.28 3.28 1.68 5 1.22 1.71-.46 3.17-1.55 4.39-3.24l2.43-3.38c1.22-1.7 1.81-3.49 1.77-5.38-.04-1.89-.89-3.49-2.54-4.79-1.66-1.3-3.35-1.7-5.08-1.21s-3.21 1.59-4.42 3.29l-2.44 3.38zm-24.01 49.17l-3.59-7.99 65.74-26.51 3.59 7.98-65.74 26.52zm21.67 0c2.69-3.75 6.12-5.96 10.28-6.63 4.16-.67 8.32.64 12.49 3.91 4.2 3.3 6.56 7.13 7.1 11.47.54 4.35-.55 8.41-3.26 12.18l-2.43 3.38c-2.73 3.81-6.15 6.04-10.26 6.7-4.11.66-8.25-.65-12.42-3.93-4.2-3.3-6.57-7.13-7.15-11.5-.56-4.37.51-8.44 3.22-12.21l2.43-3.37zm5.71 9.78c-1.2 1.67-1.74 3.47-1.62 5.42.11 1.95.96 3.53 2.52 4.76 1.82 1.43 3.51 1.91 5.08 1.43 1.58-.48 3.02-1.65 4.35-3.49l2.43-3.38c1.2-1.67 1.77-3.45 1.73-5.34-.04-1.89-.89-3.48-2.54-4.79-1.68-1.32-3.38-1.73-5.11-1.24-1.74.5-3.2 1.57-4.4 3.24l-2.44 3.39z"/></g><path class="st5" d="M2453.56 822.73l5.26-8.99c1.94-3.32 1.77-9.06-1.4-11.09l-63.13-40.39c-3.17-2.03-8.14.43-10.07 3.75l-26.31 45.05c-1.94 3.31-.11 6.24 3.06 8.27l63.13 40.38c3.17 2.03 6.49 2.4 8.42-.92l4.35-7.45 4.58 8.62 22.51-38.4-10.4 1.17zm-61.71-1.05l16.52-29.14 13.49 25.42-30.01 3.72z"/><path class="st4" d="M1442.54 1612.16c132.6-185.6 264.77-371.52 396.51-557.76 79.3-112.11 158.44-224.31 237.4-336.61l-50.1-52.43c-358.88 324.55-717.76 649.1-1076.65 973.65 74.03 2.08 153.79 1.58 238.52-2.8 91.14-4.7 176.16-13.27 254.32-24.05z"/><path class="st7" d="M1713.07 558.19c-4.56-17.51-12.63-34.47-22.74-49.44-40.98-60.71-107.93-116.65-182.68-86.28-56.92 23.12-99.34 88.95-123.09 145.37-17.95 42.64-20.09 90.08 3.65 131.11 40.48 69.96 125.73 78.73 190.97 44.96 43.44-22.48 87.58-57.81 118.48-97.08 20.71-26.3 23.31-58.31 15.41-88.64z"/><path class="st8" d="M2312.11 279.26c-12.1-8.44-58.77 34.98-58.77 34.98l88.16 6.63s-17.29-33.17-29.39-41.61z"/><path d="M2226.26 809.65l22.08-89.46c-8.06 26.62-22 50.61-40.29 70.39l18.21 19.07zm26.69-108.14l-4.61 18.69c1.84-6.1 3.4-12.33 4.61-18.69z" fill="#e02e5e"/><path d="M2033.41 643.04c-9.47 12.98-13.57 23.63-13.57 23.63l59.85 62.64s9-3.79 20.39-12.49l-66.67-73.78z" fill="#d23358"/><path d="M2146.38 622.68c.06-11.17-1.82-17.63-5.08-20.48-2.74-3.4-8.89-5.37-19.58-5.32-45.82.19-73.59 25.99-88.31 46.16l66.67 73.78c19.54-14.93 46.1-44.35 46.3-94.14z" fill="#ecebef"/><path class="st7" d="M2276.02 608.03l-15.05-17.94 7.37-7.72-60.07-55.16-52.7-62.87-7.37 7.71-17.14-15.75-192.64 52.07 23.22 24.31L1990.6 563l82.47 1.76 99.31 103.94 1.69 86.33 33.98 35.55a180.9 180.9 0 0044.96-89.43l-.06.36 23.07-93.48zm-20.58 75.45c-.03.36-.04.72-.08 1.08.03-.36.04-.72.08-1.08zm.75-16.38c0 2.95-.07 5.89-.21 8.81.13-2.92.21-5.86.21-8.81z"/><path class="st4" d="M2373.93 275.31c-187.61 62.03-290.82 249.58-290.82 249.58l90.77 95.01c83.86-107.08 172.79-233.2 232.32-319.68-11.7-11.21-22.91-19.29-32.27-24.91z"/><path class="st4" d="M2448.22 355.61c-13.14-23.89-27.95-41.91-42.01-55.38-59.53 86.47-148.46 212.6-232.32 319.68l36.45 38.15s178.03-107.32 237.88-302.45z"/><path class="st7" d="M2448.22 355.61c3.45-11.21 6.57-22.65 9.17-34.44 6.79-30.74 5.47-47.26-1.78-52.99-3.41-4.73-10.83-7.04-23.08-6.39-7.36.39-16.49 1.86-27.54 4.53-10.62 2.56-20.91 5.63-31.05 8.98 9.35 5.62 20.57 13.7 32.28 24.92 14.05 13.48 28.86 31.49 42 55.39z"/><path class="st4" d="M2448.22 355.61c-13.14-23.89-27.95-41.91-42.01-55.38-59.53 86.47-148.46 212.6-232.33 319.68l36.46 38.15s178.03-107.32 237.88-302.45z"/><path class="st6" d="M2369.61 431.16c19.21-20.1 19.21-52.71-.01-72.82-19.2-20.1-50.36-20.11-69.58 0-19.21 20.1-19.2 52.71 0 72.82 19.22 20.11 50.38 20.11 69.59 0z"/><path class="st12" d="M2362.63 423.85c15.35-16.07 15.35-42.13-.01-58.2-15.35-16.07-40.25-16.07-55.61 0s-15.34 42.13 0 58.2c15.36 16.07 40.26 16.07 55.62 0z"/><path class="st6" d="M2274.22 515.72c15.18-15.9 15.18-41.66-.01-57.55-15.17-15.88-39.79-15.89-54.98 0-15.19 15.89-15.17 41.65 0 57.54 15.19 15.89 39.82 15.91 54.99.01z"/><path class="st12" d="M2266.96 508.12c11.16-11.7 11.16-30.65-.01-42.34-11.17-11.69-29.27-11.69-40.44 0-11.18 11.69-11.18 30.65 0 42.34 11.17 11.69 29.27 11.69 40.45 0z"/><path class="st6" d="M2371.41 289.05s-147.37 51.8-266.14 232.51l16.5 17.26s172.66-214.09 249.64-249.77z"/><path class="st4" d="M2400.41 192.12c7.78.9 3.89-4.52 3.89-4.52s-1.73-16.28-2.59-18.09c-.87-1.81-9.08-4.98-12.54-4.52-3.46.45-15.99 12.66-15.99 12.66l.44 16.73s6.05-2.26 9.07-2.71c3.03-.46 9.94-.46 17.72.45z"/><path class="st13" d="M2376.21 195.73l-2.59-21.71-57.91 11.76s-99.39 13.57-101.98 13.57l19.01 29.85 143.47-33.47z"/><path class="st12" d="M2262.99 311.97l-7.09-83.51c-.96-11.28-7.44-21.25-17.13-26.31-3.98-2.08-7.28-3.83-7.76-4.16-1.3-.91-15.13-4.52-19.45-4.52s-24.2 6.18-24.2 6.18l27.66 140.36 47.97-28.04z"/><path class="st13" d="M2187.49 369.02c19.83-5.66 44.18-35.86 44.18-35.86l-13.62-103.05s-26.96-66.81-43.18-5.47l-11.7 89.14s-34.29 5.22-34.29 8.05c0 2.83 38.77 52.85 58.61 47.19z"/><path class="st4" d="M2272.1 177.92c-.49-3.95-3.72-7.04-4.38-10.66v-.4l-.03.25c-.04-.25-.11-.5-.12-.75-.03-.59.25-9.13.13-9.12-.03 0-36.52 1.77-36.52 1.77s-14.86 27.22-17.16 34.31c-2.31 7.08 22.19 22.16 22.19 22.16l10.53-21.08s2.37 2.48 5.41 4.6c3.05 2.12 10.59 5.8 13.3 2.62 1.18-1.39 1.76-9.97 2.04-19.22 1.45-.68 2.84-1.52 4.01-2.65.22-.21.44-.44.55-.72.12-.35.09-.74.05-1.11z"/><path class="st13" d="M2240.3 166.09c-.55.09 1.17 8.87 2.44 9.77 3.99 2.81 6.52-7.15 7.53-9.64 2.6-6.43 7.59-9.19 14.37-8.27 6.97.94 12.41-10.67 15-15.75 1.81-3.54 5.1-8.58 5.6-12.59.33-2.66-1.34-5.45-4.31-4.27a42.07 42.07 0 00-5.91 2.91c-2.7 1.6-5.23 3.49-7.97 5-5.84 3.22-12.47 3.36-18.91 3.53-5.9.15-12.71-1.49-18.35.64-5.63 2.13-14.03 9.93-14.9 16.38-1.14 8.43.88 16.93 1.8 25.28.82 7.45 3.62 10.92 11.07 7.82 4.59-1.91 3.88-5.19 4.39-9.62.31-2.67 1.06-5.35 2.67-7.5 1.31-1.75 3.31-3.34 5.48-3.69z"/><path d="M2310.38 305.19c-10.66-9.5-99.68 17.49-99.68 17.49l-12.5 1.82c-27.81 4.05-32.48 45.37-5.83 54.64.89.31 1.82.59 2.77.83 30.54 7.84 87.73-33.62 87.73-33.62l18.58 94.53 23.46-5.21s-3.87-120.98-14.53-130.48z" fill="#a43149"/><path class="st2" d="M2082.72 360.18l27.03-21.06c3.94-3.07 4.76-8.92 1.83-13.04l-20.12-28.3c-2.93-4.12-8.52-4.98-12.46-1.91l-27.03 21.06c-3.94 3.07-4.76 8.91-1.83 13.04l20.12 28.3c2.94 4.12 8.53 4.98 12.46 1.91zm-26.19-36.83l27.03-21.06c.56-.44 1.37-.31 1.78.27l20.12 28.3c.42.59.3 1.43-.26 1.86l-27.04 21.06c-.56.44-1.36.31-1.77-.28l-20.13-28.29c-.41-.59-.29-1.43.27-1.86z"/><path class="st4" d="M2049.73 430.82l60.52-47.14c2.25-1.76 2.72-5.1 1.04-7.46l-65.8-92.53c-1.68-2.36-4.86-2.85-7.12-1.09l-60.52 47.15c-2.26 1.76-2.73 5.09-1.05 7.45l65.81 92.53c1.68 2.35 4.87 2.85 7.12 1.09z"/><path class="st8" d="M2090.41 399.13l26.77-20.85c1.81-1.41 1.92-4.47.24-6.83l-65.81-92.54c-1.68-2.36-4.51-3.12-6.32-1.71l-26.77 20.85c-1.81 1.41-1.91 4.46-.24 6.82l65.8 92.54c1.7 2.36 4.52 3.13 6.33 1.72z"/><path class="st6" d="M2021.03 345.88l23.8-18.54c2.26-1.75 2.72-5.1 1.04-7.45l-1.52-2.14c-1.67-2.36-4.86-2.84-7.11-1.09l-23.8 18.54c-2.26 1.75-2.72 5.1-1.05 7.45l1.52 2.13c1.68 2.37 4.87 2.85 7.12 1.1zm35.28 46.63l23.81-18.55c2.25-1.75 2.71-5.09 1.04-7.45l-1.52-2.13c-1.68-2.37-4.87-2.85-7.12-1.09l-23.8 18.54c-2.25 1.76-2.72 5.09-1.04 7.45l1.52 2.14c1.67 2.36 4.85 2.84 7.11 1.09z"/><path class="st4" d="M2093.05 290.42s-4.73 17.65-3.99 23.49c.75 5.84-.05 8.7 3.48 10.41 3.53 1.71 5.41 3.38 7.84 3.81 2.43.44 7.48-2.35 7.48-2.35s3.41.91 5.13.25c1.72-.66 5.01-7.54 5.83-9.38.82-1.85-2.01-9.95-2.8-10.34-.78-.38-6.47-6.88-5.45-8.13 1.03-1.24-17.52-7.76-17.52-7.76z"/><path class="st13" d="M2204.65 194.23l-72.68 13.86c-9.67 1.84-17.71 8.8-21.23 18.4-7.72 21.04-20.44 57.15-20.39 66.38.01 1.92 25.7 6.89 25.7 6.89l18.39-55.35c1.29-3.89 4.63-6.62 8.55-7l75.07-7.29c-3.02-16.4-13.41-35.89-13.41-35.89z"/><path fill="#1e1e1c" d="M2338.55 461.03l6.05 2.09 30.93-8.73-3.01-7.41-67.16 13.8.82 10.49 20.2-4z"/><path d="M2374.18 449.64s.17-2.42-.6-5.6c-.77-3.19-31.25-4.16-31.25-4.16l-20.85-10.3-20.89 4.74 4.82 30.16s25.26-5 26.24-4.92c.98.07 42.53-9.92 42.53-9.92z" fill="#766e5b"/><path class="st6" d="M2243.92 200.02s-5.45 11.69-8.63 12.59c-3.17.9-20.74-15.44-20.74-15.44s26.98 56.75 28.13 57.36c1.15.61 1.24-54.51 1.24-54.51zm-820.97 754.5c0 8.12 5.36 13.73 13.12 13.73-7.76 0-13.12 5.6-13.12 13.73 0-8.13-5.36-13.73-13.11-13.73 7.75 0 13.11-5.61 13.11-13.73zm-90.1-98.03c0 8.12 5.36 13.73 13.12 13.73-7.76 0-13.12 5.61-13.12 13.73 0-8.12-5.36-13.73-13.11-13.73 7.75-.01 13.11-5.61 13.11-13.73zm-47.81 246.33c0 8.12 5.36 13.73 13.12 13.73-7.76 0-13.12 5.61-13.12 13.73 0-8.12-5.36-13.73-13.12-13.73 7.77 0 13.12-5.61 13.12-13.73zm368.4-90.63c0 8.12 5.36 13.73 13.12 13.73-7.76 0-13.12 5.61-13.12 13.73 0-8.12-5.36-13.73-13.12-13.73 7.76-.01 13.12-5.61 13.12-13.73zm-137.34 153.47c0 8.12 5.36 13.73 13.12 13.73-7.76 0-13.12 5.61-13.12 13.73 0-8.12-5.35-13.73-13.11-13.73 7.76 0 13.11-5.61 13.11-13.73zm78.33-87.79c0 14.52 9.58 24.56 23.46 24.56-13.88 0-23.46 10.02-23.46 24.55 0-14.53-9.59-24.55-23.47-24.55 13.88 0 23.47-10.03 23.47-24.56zm-199.91 38.68c0 14.52 9.58 24.55 23.46 24.55-13.88 0-23.46 10.03-23.46 24.56 0-14.53-9.59-24.56-23.47-24.56 13.87 0 23.47-10.03 23.47-24.55zm-74.78-123.25c0 11.17 7.37 18.89 18.05 18.89-10.68 0-18.05 7.71-18.05 18.89 0-11.18-7.37-18.89-18.05-18.89 10.68 0 18.05-7.72 18.05-18.89zm161.32 73.31c0 9.65 6.37 16.31 15.59 16.31-9.22 0-15.59 6.66-15.59 16.3 0-9.65-6.36-16.3-15.58-16.3 9.22 0 15.58-6.67 15.58-16.31zm432.82 106.38c0 7.29-4.81 12.33-11.79 12.33 6.97 0 11.79 5.03 11.79 12.33 0-7.3 4.81-12.33 11.78-12.33-6.96 0-11.78-5.04-11.78-12.33zm80.94-88.06c0 7.29-4.81 12.33-11.79 12.33 6.97 0 11.79 5.04 11.79 12.33 0-7.3 4.81-12.33 11.78-12.33-6.97 0-11.78-5.04-11.78-12.33zm42.94 221.27c0 7.3-4.81 12.33-11.78 12.33 6.97 0 11.78 5.04 11.78 12.33 0-7.29 4.81-12.33 11.79-12.33-6.98.01-11.79-5.03-11.79-12.33zm-330.92-81.41c0 7.3-4.81 12.33-11.79 12.33 6.97 0 11.79 5.04 11.79 12.33 0-7.29 4.81-12.33 11.79-12.33-6.98 0-11.79-5.03-11.79-12.33zm123.37 137.86c0 7.3-4.82 12.33-11.79 12.33 6.97 0 11.79 5.04 11.79 12.33 0-7.3 4.8-12.33 11.78-12.33-6.98.01-11.78-5.03-11.78-12.33zm-70.37-78.85c0 13.05-8.61 22.06-21.07 22.06 12.47 0 21.07 9 21.07 22.05 0-13.05 8.62-22.05 21.08-22.05-12.46 0-21.08-9.02-21.08-22.06zm179.58 34.74c0 13.04-8.61 22.05-21.07 22.05 12.46 0 21.07 9.01 21.07 22.06 0-13.05 8.62-22.06 21.08-22.06-12.46 0-21.08-9.01-21.08-22.05zm67.18-110.71c0 10.03-6.62 16.96-16.21 16.96 9.59 0 16.21 6.93 16.21 16.97 0-10.04 6.62-16.97 16.21-16.97-9.59 0-16.21-6.93-16.21-16.96zm-144.92 65.85c0 8.67-5.72 14.65-14 14.65 8.28 0 14 5.98 14 14.65 0-8.67 5.71-14.65 14-14.65-8.28 0-14-5.99-14-14.65z"/><path class="st17" d="M2245.4 1173.63c.87-6.59 1.33-13.32 1.33-20.15 0-80.07-62.01-144.97-138.5-144.97a133.138 133.138 0 00-17.71 1.18c-1.1.15-2.19.35-3.28.5l-.3.03c-1.07.09-2.14.39-3.19.62-1.07.23-2.14.47-3.2.72-2.13.5-4.24 1.03-6.35 1.61-2.1.57-4.19 1.19-6.27 1.84-2.08.66-4.14 1.36-6.19 2.1-2.05.75-4.08 1.54-6.09 2.38-2.01.84-4.01 1.73-5.98 2.68-1.98.94-3.94 1.94-5.87 2.99-1.94 1.05-3.86 2.16-5.74 3.32-.17.1-.34.21-.51.32-4.64 2.89-9.16 6.04-13.42 9.5-31.95 25.59-52.95 65.39-54.34 110.4-.05 1.59-.08 3.19-.08 4.79 0 80.06 62.01 144.96 138.51 144.96 1.57 0 3.15-.04 4.71-.09 30.13-1.05 57.82-12.17 80.09-30.26 27.88-22.65 47.27-56.16 52.38-94.47z"/><path class="st18" d="M2182.74 1248.24c-8.87-6.53-35.24-15.37-43.07-33.81-7.83-18.44-2.93-14.35-13.7-19.46-10.77-5.13-56.13-18.45-50.9-53.28 1.98-13.19-18.6-16.05-39.15-35.52-13.78-13.04-13.48-46.95-11.79-67.89-31.95 25.59-52.95 65.39-54.34 110.4 1.91 5.88 4.6 10.92 8.32 14.44 20.56 19.46 41.13 22.32 39.16 35.52-5.22 34.83 40.13 48.14 50.89 53.27 10.78 5.12 5.88 1.02 13.71 19.46 5.44 12.81 19.82 20.98 31.07 26.96 30.13-1.05 57.82-12.17 80.09-30.26.67-16.05-2.51-14.1-10.29-19.83z"/><path class="st17" d="M2081.86 1271.38c-7.83-18.45-2.93-14.34-13.71-19.46-10.76-5.13-56.11-18.44-50.89-53.27 1.98-13.2-18.6-16.06-39.16-35.52-3.72-3.51-6.4-8.55-8.32-14.44-.05 1.59-.08 3.19-.08 4.79 0 80.06 62.01 144.96 138.51 144.96 1.57 0 3.15-.04 4.71-.09-11.25-5.99-25.62-14.16-31.06-26.97z"/><path class="st19" d="M2170.36 1117c0 23.51-18.21 42.58-40.68 42.58S2089 1140.52 2089 1117c0-23.51 18.21-42.58 40.68-42.58s40.68 19.07 40.68 42.58z"/><path class="st18" d="M2164.76 1115.01c0-20.2-15.65-36.58-34.95-36.58-12.2 0-22.93 6.55-29.18 16.46 6.09-5.41 13.98-8.69 22.6-8.69 19.31 0 34.95 16.38 34.95 36.58 0 7.43-2.13 14.35-5.77 20.12 7.55-6.72 12.35-16.72 12.35-27.89z"/><path class="st17" d="M2123.23 1086.19c-8.62 0-16.51 3.27-22.6 8.69-3.64 5.78-5.77 12.69-5.77 20.13 0 20.2 15.65 36.57 34.95 36.57 8.62 0 16.51-3.27 22.6-8.68 3.64-5.77 5.77-12.69 5.77-20.12 0-20.21-15.65-36.59-34.95-36.59z"/><path class="st19" d="M2084.41 1252.06c0 8.36-6.47 15.14-14.46 15.14-7.98 0-14.46-6.78-14.46-15.14s6.48-15.14 14.46-15.14c7.99.01 14.46 6.79 14.46 15.14z"/><path class="st18" d="M2080.59 1252.06c0 6.15-4.77 11.13-10.64 11.13-5.87 0-10.63-4.98-10.63-11.13s4.76-11.13 10.63-11.13c5.88 0 10.64 4.98 10.64 11.13z"/></svg>